<svg id="Capa_1" enable-background="new 0 0 512 512" height="512" viewBox="0 0 512 512" width="512" xmlns="http://www.w3.org/2000/svg"><g><path d="m363.677 422.083c0-19.453-11.396-37.325-29.031-45.532l-11.9-5.538c13.238-14.985 21.297-34.648 21.297-56.168v-51.241l10.219-20.138c4.911-9.678 4.552-21.036-.96-30.385-5.513-9.349-15.279-15.16-26.126-15.547-.095-.004-.176-.067-.202-.16-3.826-13.574-16.249-22.951-30.297-22.951-.159 0-.32.001-.479.004l-94.689 1.197c-5.416.115-10.617-1.96-14.537-5.756l-12.466-12.069c-2.526-2.445-6.095-3.502-9.552-2.839-3.447.667-6.357 2.976-7.785 6.178-9.106 20.419-11.18 39.969-6.163 58.105 3.082 11.146 12.138 19.485 23.141 22.018v42.243c0 4.143 3.357 7.5 7.5 7.5s7.5-3.357 7.5-7.5v-41.427h99.622c4.912 0 9.438 3.083 11.529 7.855 4.582 10.454 14.244 16.732 28.746 18.735v46.177c0 38.57-31.379 69.949-69.949 69.949-38.569 0-69.948-31.379-69.948-69.949v-1.354c0-4.143-3.357-7.5-7.5-7.5s-7.5 3.357-7.5 7.5v1.354c0 21.52 8.059 41.183 21.297 56.168l-11.899 5.538c-17.637 8.207-29.032 26.079-29.032 45.531v75.114c0 8.163 6.642 14.804 14.805 14.804h17.597c4.143 0 7.5-3.357 7.5-7.5s-3.357-7.5-7.5-7.5h-17.401v-74.918c0-13.642 7.992-26.176 20.361-31.932l17.372-8.085c6.908 5.341 14.648 9.652 23.004 12.678v12.489c0 15.905 12.94 28.845 28.846 28.845s28.845-12.939 28.845-28.845v-12.489c8.356-3.026 16.096-7.337 23.004-12.678l17.373 8.085c12.368 5.756 20.36 18.29 20.36 31.933v74.918h-131.778c-4.143 0-7.5 3.357-7.5 7.5s3.357 7.5 7.5 7.5h131.973c8.163 0 14.804-6.641 14.804-14.804v-75.113zm-49.641-178.172c-4.482-10.227-14.4-16.834-25.268-16.834h-107.606c-7.316 0-13.772-4.865-15.699-11.832-3.67-13.27-2.669-27.175 3.073-42.347l8.002 7.747c6.794 6.577 15.74 10.151 25.18 9.977l94.688-1.197c.085-.001.168-.002.252-.002 7.367 0 13.875 4.912 15.879 12.021 1.802 6.393 7.471 10.846 14.105 11.081 5.789.206 10.797 3.187 13.738 8.176 2.942 4.989 3.126 10.812.505 15.978l-8.77 17.283c-12.784-1.449-16.449-6.331-18.079-10.051zm-41.096 163.321c0 7.634-6.211 13.845-13.845 13.845-7.635 0-13.846-6.211-13.846-13.845v-8.585c4.509.743 9.13 1.146 13.846 1.146 4.715 0 9.336-.404 13.845-1.146z"/><path d="m230.312 265.929c-4.143 0-7.5 3.357-7.5 7.5v.881c0 4.143 3.357 7.5 7.5 7.5s7.5-3.357 7.5-7.5v-.881c0-4.143-3.357-7.5-7.5-7.5z"/><path d="m287.877 281.81c4.143 0 7.5-3.357 7.5-7.5v-.881c0-4.143-3.357-7.5-7.5-7.5s-7.5 3.357-7.5 7.5v.881c0 4.142 3.358 7.5 7.5 7.5z"/><path d="m279.646 310.734c-2.127-3.558-6.735-4.711-10.286-2.587-7.005 4.19-13.527 4.189-20.53 0-3.554-2.126-8.158-.968-10.286 2.587-2.126 3.555-.969 8.159 2.587 10.286 5.876 3.515 11.92 5.272 17.965 5.272 6.044 0 12.088-1.758 17.964-5.272 3.555-2.126 4.712-6.731 2.586-10.286z"/><path d="m322.743 470.447c4.143 0 7.5-3.357 7.5-7.5s-3.357-7.5-7.5-7.5h-34.865c-4.143 0-7.5 3.357-7.5 7.5s3.357 7.5 7.5 7.5z"/><path d="m186.355 128.759v-56.392c0-14.612-11.888-26.5-26.5-26.5h-65.705v-18.444c0-3.442-2.013-6.615-5.127-8.083-3.115-1.466-6.843-.999-9.494 1.191l-49.885 41.158c-3.085 2.546-4.854 6.3-4.854 10.299s1.77 7.753 4.854 10.299l49.887 41.159c2.654 2.188 6.38 2.654 9.495 1.188 3.112-1.468 5.124-4.64 5.124-8.081v-17.686h39.205v29.892c0 4.143 3.357 7.5 7.5 7.5h38c4.143 0 7.5-3.358 7.5-7.5zm-15-7.5h-23v-29.892c0-4.143-3.357-7.5-7.5-7.5h-51.398c-5.683 0-10.307 4.623-10.307 10.307v9.512l-38.418-31.698 38.418-31.697v10.27c0 5.683 4.624 10.307 10.307 10.307h70.398c6.341 0 11.5 5.159 11.5 11.5z"/><path d="m210.903 69.718h18.597v71.238c0 4.143 3.357 7.5 7.5 7.5h38c4.143 0 7.5-3.357 7.5-7.5v-71.238h18.598c3.345 0 6.427-1.954 7.854-4.979 1.427-3.024.975-6.647-1.153-9.229-.001-.001-.001-.002-.002-.003l-41.98-50.88c-2.426-2.941-6.004-4.628-9.816-4.627-3.812 0-7.39 1.687-9.813 4.626l-41.979 50.88c-2.13 2.58-2.585 6.203-1.158 9.229 1.422 3.027 4.506 4.983 7.852 4.983zm45.097-53.418 31.698 38.418h-10.318c-5.448 0-9.881 4.433-9.881 9.881v68.857h-23v-68.857c0-5.448-4.432-9.881-9.88-9.881h-10.317z"/><path d="m482.356 61.689-49.884-41.156c-2.656-2.192-6.385-2.659-9.495-1.193-3.114 1.468-5.127 4.641-5.127 8.083v18.444h-11.905c-4.143 0-7.5 3.357-7.5 7.5s3.357 7.5 7.5 7.5h16.598c5.684 0 10.308-4.624 10.308-10.307v-10.27l38.418 31.697-38.418 31.697v-9.512c0-5.684-4.624-10.307-10.308-10.307h-51.398c-4.143 0-7.5 3.357-7.5 7.5v29.892h-23v-48.89c0-6.341 5.159-11.5 11.5-11.5h23.813c4.143 0 7.5-3.357 7.5-7.5s-3.357-7.5-7.5-7.5h-23.813c-14.612 0-26.5 11.888-26.5 26.5v56.392c0 4.143 3.357 7.5 7.5 7.5h38c4.143 0 7.5-3.357 7.5-7.5v-29.892h39.206v17.687c0 3.442 2.013 6.615 5.127 8.083 3.113 1.468 6.84.998 9.493-1.191l49.886-41.158c3.085-2.546 4.854-6.3 4.854-10.299s-1.77-7.754-4.855-10.3z"/></g></svg>