<svg height="512" viewBox="0 0 60 60" width="512" xmlns="http://www.w3.org/2000/svg"><g id="Page-1" fill="none" fill-rule="evenodd"><g id="062---Distribution-Strategy" fill="rgb(0,0,0)" fill-rule="nonzero" transform="translate(-1 -1)"><path id="Shape" d="m57 27c-1.8184116.0068148-3.4034067 1.2393149-3.858 3h-3.193c-.2247046-4.3375718-1.9371515-8.4652434-4.849-11.688l2.262-2.261c1.7323258 1.0233137 3.9554576.5975137 5.1870599-.9934858s1.0867126-3.8498991-.3380599-5.2705142c-1.5821292-1.51213879-4.0738708-1.51213879-5.656 0-1.2954681 1.2833816-1.5461429 3.2858888-.607 4.849l-2.26 2.264c-3.2227566-2.9118485-7.3504282-4.6242954-11.688-4.849v-3.193c1.9503067-.50356703 3.2219252-2.37878672 2.9681188-4.37700052-.2538064-1.99821379-1.9538507-3.49598283-3.9681188-3.49598283s-3.7143124 1.49776904-3.9681188 3.49598283c-.2538064 1.9982138 1.0178121 3.87343349 2.9681188 4.37700052v3.193c-4.3375718.2247046-8.4652434 1.9371515-11.688 4.849l-2.262-2.264c.9391429-1.5631112.6884681-3.5656184-.607-4.849-1.5821292-1.51213879-4.0738708-1.51213879-5.656 0-1.43417188 1.4184556-1.58410531 3.6841851-.34935186 5.2792554 1.23475346 1.5950702 3.46576116 2.017699 5.19835186.9847446l2.264 2.261c-2.9118485 3.2227566-4.6242954 7.3504282-4.849 11.688h-3.193c-.50356703-1.9503067-2.37878672-3.2219252-4.37700052-2.9681188-1.99821379.2538064-3.49598283 1.9538507-3.49598283 3.9681188s1.49776904 3.7143124 3.49598283 3.9681188c1.9982138.2538064 3.87343349-1.0178121 4.37700052-2.9681188h3.193c.2247046 4.3375718 1.9371515 8.4652434 4.849 11.688l-2.27 2.27c-1.5700766-.8861015-3.5347571-.6425964-4.841.6-1.49081399 1.4672879-1.6045262 3.8336204-.26127534 5.437097 1.34325084 1.6034766 3.69288894 1.9062321 5.39873834.6956381 1.7058495-1.2105939 2.1957055-3.5284595 1.125537-5.3257351l2.26-2.265c3.2227566 2.9118485 7.3504282 4.6242954 11.688 4.849v3.193c-1.9503067.503567-3.2219252 2.3787867-2.9681188 4.3770005s1.9538507 3.4959828 3.9681188 3.4959828 3.7143124-1.497769 3.9681188-3.4959828-1.0178121-3.8734335-2.9681188-4.3770005v-3.193c4.3375718-.2247046 8.4652434-1.9371515 11.688-4.849l2.262 2.262c-1.0480117 1.7886665-.5520752 4.0819071 1.141358 5.2777084 1.6934331 1.1958013 4.0204486.8959607 5.3554386-.6900589 1.3349899-1.5860196 1.2334019-3.9300728-.2337966-5.3946495-1.3062429-1.2425964-3.2709234-1.4861015-4.841-.6l-2.27-2.27c2.9104867-3.2222502 4.6221704-7.348725 4.847-11.685h3.193c.5232114 2.0075927 2.4967022 3.2800579 4.5412858 2.9281251 2.0445836-.3519327 3.4790448-2.2110063 3.3009012-4.2779954-.1781435-2.066989-1.9095378-3.6532132-3.984187-3.6501297zm-52 6c-1.1045695 0-2-.8954305-2-2s.8954305-2 2-2 2 .8954305 2 2-.8954305 2-2 2zm42.971-21.8c.7812068-.7812068 2.0477932-.7812068 2.829 0s.7812068 2.0477932 0 2.829c-.791167.755814-2.036833.755814-2.828 0-.7807639-.7809997-.7807639-2.0470003 0-2.828zm-18.971-6.2c0-1.1045695.8954305-2 2-2s2 .8954305 2 2-.8954305 2-2 2-2-.8954305-2-2zm-17.8 9.029c-.5721212-.5719485-.7433434-1.4322315-.4338168-2.1796544.3095266-.747423 1.0388373-1.2347727 1.8478168-1.2347727s1.5382902.4873497 1.8478168 1.2347727c.3095266.7474229.1383044 1.6077059-.4338168 2.1796544-.791167.755814-2.036833.755814-2.828 0zm2.829 36.771c-.791167.755814-2.036833.755814-2.828 0-.5721212-.5719485-.7433434-1.4322315-.4338168-2.1796544.3095266-.747423 1.0388373-1.2347727 1.8478168-1.2347727s1.5382902.4873497 1.8478168 1.2347727c.3095266.7474229.1383044 1.6077059-.4338168 2.1796544zm11.971-25.8h2c1.1045695 0 2-.8954305 2-2v-1h2v1c0 1.1045695.8954305 2 2 2h2c1.1045695 0 2-.8954305 2-2v-1h2v5c0 .5522847-.4477153 1-1 1h-16c-.5522847 0-1-.4477153-1-1v-5h2v1c0 1.1045695.8954305 2 2 2zm11 5-1.5 2h-9l-1.5-2zm-11 9.939c.6533468-1.0872333.9989934-2.3315611 1-3.6v-2.339h8v2.338c.0010066 1.2684389.3466532 2.5127667 1 3.6l1.234 2.062h-12.468zm-3 4.061h16c.5522847 0 1 .4477153 1 1v.4c-5.4977177 3.4719989-12.5022823 3.4719989-18 0v-.4c0-.5522847.4477153-1 1-1zm10 13c0 1.1045695-.8954305 2-2 2s-2-.8954305-2-2 .8954305-2 2-2 2 .8954305 2 2zm17.8-9.029c.7807639.7809997.7807639 2.0470003 0 2.828-.791167.755814-2.036833.755814-2.828 0-.5199132-.5021489-.7284252-1.2457558-.5453943-1.9450146.1830309-.6992589.7291208-1.2453488 1.4283797-1.4283797.6992588-.1830309 1.4428657.0254811 1.9450146.5453943zm-8.958-3.889c-.3293279-1.0279515-1.1855048-1.7997328-2.242-2.021l-1.888-3.151c-.4656497-.777131-.7117242-1.6660408-.712-2.572v-3.005l2.54-3.388c1.4226941-.2603341 2.4571069-1.4986861 2.46-2.945v-5c0-1.1045695-.8954305-2-2-2h-2c-1.1045695 0-2 .8954305-2 2v1h-2v-1c0-1.1045695-.8954305-2-2-2h-2c-1.1045695 0-2 .8954305-2 2v1h-2v-1c0-1.1045695-.8954305-2-2-2h-2c-1.1045695 0-2 .8954305-2 2v5c.0028931 1.4463139 1.0373059 2.6846659 2.46 2.945l2.54 3.388v3.005c-.0002758.9059592-.2463503 1.794869-.712 2.572l-1.888 3.151c-1.0549687.2225567-1.9093709.9941147-2.238 2.021-5.520893-4.5706836-7.5820181-12.1130197-5.1529193-18.8562301s8.8265343-11.2385291 15.9939193-11.2385291 13.5648205 4.4953187 15.9939193 11.2385291.3679737 14.2855465-5.1529193 18.8562301zm15.158-11.082c-1.1045695 0-2-.8954305-2-2s.8954305-2 2-2 2 .8954305 2 2-.8954305 2-2 2z"/></g></g></svg>