<svg width="1137.68" height="859.71" xmlns="http://www.w3.org/2000/svg" xmlns:xlink="http://www.w3.org/1999/xlink">
 <defs>
  <linearGradient id="1d1d90cb-e8d6-4c10-b901-192027040f7e" x1="0.50001" y1="1" x2="0.50001" y2="0.00008">
   <stop offset="0" stop-color="gray" stop-opacity="0.25"/>
   <stop offset="0.54" stop-color="gray" stop-opacity="0.12"/>
   <stop offset="1" stop-color="gray" stop-opacity="0.1"/>
  </linearGradient>
  <linearGradient id="8425757a-56ab-41b8-890b-c9acfe5ccb1b" x1="703.39" y1="781.93" x2="703.39" y2="171.12" xlink:href="#1d1d90cb-e8d6-4c10-b901-192027040f7e"/>
  <linearGradient id="422858ff-741c-491e-b83f-4f975ae951a6" x1="876.05" y1="827.31" x2="876.05" y2="239.74" xlink:href="#1d1d90cb-e8d6-4c10-b901-192027040f7e"/>
 </defs>
 <title>team spirit</title>
 <g>
  <title>background</title>
  <rect x="-1" y="-1" width="1139.68" height="861.71" id="canvas_background" fill="none"/>
 </g>
 <g>
  <title>Layer 1</title>
  <ellipse cx="599.34" cy="744.94" rx="75.23" ry="16.89" fill="#7d1c5d" opacity="0.1" id="svg_5"/>
  <ellipse cx="774.15" cy="798.58" rx="135.72" ry="11.14" fill="#7d1c5d" opacity="0.1" id="svg_6"/>
  <ellipse cx="229.22" cy="781.69" rx="135.72" ry="16.89" fill="#7d1c5d" opacity="0.1" id="svg_7"/>
  <path d="m371.29,440.22c-4.27,18.77 -21.25,-9.61 -25.12,-16.42c-0.5,-0.89 -0.78,-1.41 -0.78,-1.41l1.84,-8.63l9.73,-4a27.18,27.18 0 0 1 4.36,2.84c5.33,4.19 13.26,13.08 9.97,27.62z" fill="#d38884" id="svg_11"/>
  <path d="m503.02,409.51s0,0.14 -0.11,0.42c0,0.12 -0.08,0.28 -0.13,0.45c-1.67,5.86 -11.57,38.85 -21.13,29.69c-10.46,-10 -5.38,-33.12 -5.38,-33.12l0.07,0l22,-2.25l4.36,4.48s0,0 0,0l0.32,0.33z" fill="#d38884" id="svg_12"/>
  <path d="m490.29,571.86l0.56,63c-8.63,14.3 -7.92,27 -7.92,27l-28.44,1.12c-6.94,-4.67 -2,-17.68 -2,-17.68l0,-32.44s-4.39,-31.69 -2.27,-40.47s-8.91,-25 -8.91,-25l-1.56,-17.69c-5.38,-7.07 -7.93,-46.12 -7.93,-46.12l-5.77,-19.72c0.16,0.85 3.16,17.31 0,20.34s-4.39,16.41 -4.39,16.41s3.11,37.08 0,44.57s0.84,11.75 0.84,11.75l0.57,38.49s-2.69,10.33 0.28,24.9s0,37.08 0,37.08l-30.51,0l0.14,-15.71l-4.94,-13.3s-3.4,-54.9 -6.09,-66.79a29.84,29.84 0 0 1 2.82,-20.8s-5.65,-9.05 -5.37,-15.42s-4.36,-18.52 -4.36,-18.52l-6.58,-44.71a86.86,86.86 0 0 0 -3.26,-25.47c-3.82,-12.74 -9.48,-29.44 -9.48,-29.44l6.39,0.57l32.24,2.87s78.39,-5.27 81.9,-0.89a14.71,14.71 0 0 1 1.48,4.57c3.52,15.81 8.17,65.34 8.17,65.34s9.48,38.63 5.41,42.45s-3.57,16.26 -3.57,16.26c6.1,11.75 2.55,33.45 2.55,33.45z" fill="#444053" id="svg_13"/>
  <path d="m424.02,681.29c-0.22,3.51 -4.13,3.72 -4.13,3.72c-11.46,1.8 -13.9,6.26 -13.9,6.26s-11,10.93 -27.59,9.34c-14.1,-1.36 -12.73,-3.87 -12,-8.52a17.62,17.62 0 0 0 0.23,-2.62c0,-6.37 4.88,-8.18 12.52,-13s7.43,-8.81 10.61,-12.31s3.51,-10.29 3.51,-10.29c3.6,-6.27 12.73,1 12.73,1c0.43,2.22 14,1.91 14,1.91s1.8,7.22 2.73,7.64c0.61,0.28 1.07,5.94 1.25,10.8c0.1,2.55 0.12,4.86 0.04,6.07z" fill="#b07473" id="svg_14"/>
  <path d="m424.02,681.29c-0.22,3.51 -4.13,3.72 -4.13,3.72c-11.46,1.8 -13.9,6.26 -13.9,6.26s-11,10.93 -27.59,9.34c-14.1,-1.36 -12.73,-3.87 -12,-8.52c6.3,1.56 18.34,3.74 25.37,-0.08c9.77,-5.3 16.78,-9 16.78,-9l15.44,-7.77c0.09,2.53 0.11,4.84 0.03,6.05z" opacity="0.1" id="svg_15"/>
  <path d="m510.39,700.18a6.1,6.1 0 0 1 -3.52,2.91l-0.27,0.07c-4.67,1 -22.72,1 -22.72,1s-18.25,-14.11 -23.77,-14.43s-8.49,-5.1 -8.49,-5.1s0.11,-3.28 0.46,-7.1c0.43,-4.52 1.18,-9.77 2.51,-11.15c2.44,-2.55 3,-6 8.49,-3.82c0,0 7.84,-13.82 17.08,-3.14l9.56,14.5s1.8,6 13.91,12.51c4.84,2.6 7,5.66 7.61,8.45a7.45,7.45 0 0 1 -0.85,5.3z" fill="#b07473" id="svg_16"/>
  <path d="m510.39,700.18c-1.08,0.91 -2.27,1.89 -3.52,2.91l-0.27,0.07c-4.67,1 -22.72,1 -22.72,1s-18.25,-14.11 -23.77,-14.43s-8.49,-5.1 -8.49,-5.1s0.11,-3.28 0.46,-7.1c5.62,1.68 14.13,4.65 16.41,7.85c3.5,4.87 14.13,11.67 14.13,11.67s19.82,-1.91 28.62,-2.17a7.45,7.45 0 0 1 -0.85,5.3z" opacity="0.1" id="svg_17"/>
  <path d="m433.26,206.39l-26.1,27.59s-31.63,-2.33 -26.11,-11.67c2.81,-4.76 3.25,-14.72 3,-23.38c-0.23,-8.35 -1.09,-15.46 -1.09,-15.46s44.36,-22.08 41,-1.49a33.89,33.89 0 0 0 -0.12,11.75c1.89,10.4 9.42,12.66 9.42,12.66z" fill="#d38884" id="svg_18"/>
  <path d="m423.92,181.98a33.89,33.89 0 0 0 -0.12,11.75a32.56,32.56 0 0 1 -23.22,9.69c-6,0 -12.49,-4.93 -17.34,-7.78c-0.23,-8.36 -0.28,-12.17 -0.28,-12.17s44.36,-22.08 40.96,-1.49z" opacity="0.1" id="svg_19"/>
  <path d="m433.26,169.03a32.69,32.69 0 1 1 -12.3,-25.54a32.69,32.69 0 0 1 12.3,25.54z" fill="#d38884" id="svg_20"/>
  <path d="m477.73,414.36c-8.14,19.37 -60.5,19.77 -60.5,19.77l0,-21.12l-3.17,-0.21c1.37,6.05 -1.92,20.8 -1.92,20.8c-41.38,5.84 -51.47,-17.74 -51.47,-17.74l1.44,-8.07l32.24,2.87s78.39,-5.27 81.9,-0.89a14.71,14.71 0 0 1 1.48,4.59z" opacity="0.1" id="svg_21"/>
  <path d="m417.23,431.58l0,-21.12l-3.17,-0.2c1.37,6 -1.92,20.8 -1.92,20.8c-31.14,4.39 -44.56,-7.87 -49.29,-14.21a19.35,19.35 0 0 1 -2.18,-3.52l12.64,-71.1l3,-104.64l4.53,-18.36l1.05,-8.81l0,-0.1l0.11,0l3.22,1.38l19.27,8.33l21.89,-16.53l0.32,-0.23l1.09,-0.83l1.81,1.45l4.5,3.61l14.43,93.19s25,71.75 29.68,100.71c0.19,1.16 0.34,2.24 0.46,3.25c3.09,26.44 -61.44,26.93 -61.44,26.93z" fill="#7d1c5d" id="svg_22"/>
  <circle cx="406.83" cy="222.09" r="1.86" fill="#67647e" id="svg_23"/>
  <circle cx="407.69" cy="239.07" r="1.86" fill="#67647e" id="svg_24"/>
  <circle cx="409.55" cy="266.56" r="1.86" fill="#67647e" id="svg_25"/>
  <circle cx="412.62" cy="296.17" r="1.86" fill="#67647e" id="svg_26"/>
  <circle cx="414.48" cy="323.97" r="1.86" fill="#67647e" id="svg_27"/>
  <circle cx="416.34" cy="353.58" r="1.86" fill="#67647e" id="svg_28"/>
  <circle cx="415.6" cy="382.87" r="1.86" fill="#67647e" id="svg_29"/>
  <path d="m383.13,352.57s-2.08,27.23 -5.9,35.15s-5.52,30.14 -5.52,30.14l-8.87,-1a19.35,19.35 0 0 1 -2.18,-3.52l12.64,-71.1l3,-104.64l4.54,-18.37l1.05,-8.81l0.12,-0.05a3.58,3.58 0 0 1 3.16,0.05l0.42,0.22q-0.19,0.54 -0.36,1.11c-3.46,10.83 -4.75,30.79 -4.75,30.79s5,36.51 5.52,53.49s-2.87,56.54 -2.87,56.54z" opacity="0.1" id="svg_30"/>
  <path d="m361.32,412.63a5.13,5.13 0 0 1 -0.34,0.66c-3.44,5.81 -12.16,9.5 -14.81,10.51c-0.5,-0.89 -0.78,-1.41 -0.78,-1.41l1.84,-8.63l9.73,-4a27.18,27.18 0 0 1 4.36,2.87z" opacity="0.1" id="svg_31"/>
  <path d="m337.75,273.67l-8.07,4.81l-7.35,32.69s-9.2,27.73 -2.13,47.54s11.18,31.15 11.18,31.15s2.83,22.5 7.08,24.34s6.08,2.83 6.08,2.83l0.85,5.38s11.52,-3.91 15.59,-10.8s-3,-24 -3,-24s-6.08,-14.58 -4.52,-21.37s-3.12,-24.62 -3.12,-25s-0.42,-9.91 3,-17.2s1.14,-10.4 1.14,-10.4l-2.13,-20.8l-14.6,-19.17z" fill="#67647e" id="svg_32"/>
  <path d="m478.4,408.24s-21.37,8.06 -28.16,1s-6.09,-40.19 -6.09,-40.19s-6.5,-61.13 -10.61,-71.17s-2,-82.5 -2,-82.5s-2.76,-9.37 -5.17,-11.82a2.62,2.62 0 0 0 -0.51,-0.41l0.83,0.18l2.9,0.62l4.5,3.61l14.43,93.19s25,71.75 29.68,100.71l0.2,6.78z" opacity="0.1" id="svg_33"/>
  <path d="m503.02,410.36l-0.24,0c-2.69,0.35 -26.43,3.22 -26.53,-1.72a14.47,14.47 0 0 1 0.09,-1.71l22,-2.25l4.36,4.48s0,0 0,0c0.08,0.29 0.14,0.54 0.2,0.74l0.12,0.46z" opacity="0.1" id="svg_34"/>
  <path d="m480.24,240.93l15.6,8.14s13,33.66 15.08,48.09c0,0 9.63,38.66 3,54.56s-6.08,47.46 -6.08,47.46s-3.82,5.8 -5.38,4.25s0.57,6.08 0.57,6.08s-26.67,3.54 -26.78,-1.7s6.12,-30.28 6.12,-30.28s1.7,-59.57 -0.71,-68.91s-1.42,-67.69 -1.42,-67.69z" fill="#67647e" id="svg_35"/>
  <path d="m433.69,304.38s-8.78,21.5 -11.61,22.92s0.57,7.07 0.57,7.07s15.99,-22.35 11.04,-29.99z" opacity="0.1" id="svg_36"/>
  <path d="m428.45,228.96c0.1,-0.41 -10.47,10.37 -13.3,12s10.33,-0.1 13.3,-12z" opacity="0.1" id="svg_37"/>
  <path d="m399.02,302.68s-16.13,10.43 -14,14.56s14,-14.56 14,-14.56z" opacity="0.1" id="svg_38"/>
  <path d="m428.31,454.93s13.73,8.83 35.09,11l-35.09,-11z" opacity="0.1" id="svg_39"/>
  <path d="m395.34,476.16s12.73,16 18.54,16.41s-18.54,-16.41 -18.54,-16.41z" opacity="0.1" id="svg_40"/>
  <path d="m413.17,538.86c-0.57,0.28 -7.22,14.43 -14,14.86s14,-14.86 14,-14.86z" opacity="0.1" id="svg_41"/>
  <path d="m472.17,569.86s12.62,-2.83 15.43,6.22c0,-0.03 -0.85,-2.86 -15.43,-6.22z" opacity="0.1" id="svg_42"/>
  <path d="m463.68,621.62s15.29,-3.12 18.54,1.13s-18.54,-1.13 -18.54,-1.13z" opacity="0.1" id="svg_43"/>
  <path d="m420.43,628.86c0,0.14 -15.56,3.12 -15,5.1s16.6,1.7 17.17,-1.42a3,3 0 0 0 -2.17,-3.68z" opacity="0.1" id="svg_44"/>
  <path d="m458.59,642.28s25.57,-3.12 24,2.26s-24,-2.26 -24,-2.26z" opacity="0.1" id="svg_45"/>
  <path d="m324.73,327.3c0.14,0.42 16.84,2.69 19.1,8.07c0,0 -16.41,-7.65 -19,-7.65" opacity="0.1" id="svg_46"/>
  <path d="m348.22,371.02s-13.87,4.39 -12.88,11s-1.41,-3.06 12.88,-11z" opacity="0.1" id="svg_47"/>
  <path d="m341.76,404.7s5.05,-6.93 9.86,-5.66s-9.86,5.66 -9.86,5.66z" opacity="0.1" id="svg_48"/>
  <path d="m420.96,143.49a7.87,7.87 0 0 1 -1.62,1.21c-4,2.33 -5.1,5.92 -7,10.06c-1.77,3.79 -3.72,7.8 -7.29,9.95c-4.61,2.78 -10.68,1.76 -15.47,4.18a12,12 0 0 0 -6.4,11.83a34.12,34.12 0 0 0 1.36,5.42a38.65,38.65 0 0 1 1.46,11.77a2,2 0 0 1 0,0.35a32.68,32.68 0 1 1 35,-54.77l-0.04,0z" opacity="0.1" id="svg_49"/>
  <path d="m420.11,133.65c-3.59,-7.54 -11.4,-12.32 -19.43,-14.65c-6.13,-1.77 -12.79,-2.35 -18.87,-0.4c-3.47,1.1 -6.62,3 -9.87,4.63c-6.06,3.06 -12.72,5.48 -17.28,10.51c-1.07,1.17 -2,2.67 -1.73,4.22c0.23,1.15 1.13,2 1.71,3.06c1.31,2.3 1,5.19 0.09,7.69s-2.2,4.82 -2.82,7.39s-0.38,5.58 1.52,7.41c0.85,0.81 1.94,1.32 2.86,2a15.05,15.05 0 0 1 2.71,3.08l5.4,7.38a74.85,74.85 0 0 1 6.76,10.39c1.34,2.68 2.38,5.54 4.18,7.93s4.6,4.31 7.58,4.05a1.47,1.47 0 0 0 1.2,-0.57a1.58,1.58 0 0 0 0.15,-0.75a38.38,38.38 0 0 0 -1.43,-11.73a33.85,33.85 0 0 1 -1.36,-5.42a12.05,12.05 0 0 1 6.4,-11.83c4.8,-2.42 10.87,-1.4 15.47,-4.17c3.58,-2.16 5.53,-6.17 7.29,-10c1.93,-4.14 3,-7.73 7,-10.06s4.46,-6.19 2.47,-10.16z" fill="#585268" id="svg_50"/>
  <path d="m405.47,667.92s5,6.37 3.7,10s-3.7,-10 -3.7,-10z" opacity="0.1" id="svg_51"/>
  <path d="m473.12,683.86s1.11,-8.54 5.56,-8.62s4.67,-0.46 8.07,0.85s6.59,3.34 5.57,3.64s-5.85,-4.88 -10.81,-2.23a35.72,35.72 0 0 0 -8.39,6.36z" opacity="0.1" id="svg_52"/>
  <path d="m390.55,230.74l14,-9.81s-20.48,-12.1 -22.92,-10.4s-4.12,17 -4.12,17l13.04,3.21z" opacity="0.1" id="svg_53"/>
  <path d="m390.49,230.11l14,-10s-20.48,-12.1 -22.92,-10.4s-4.12,17.84 -4.12,17.84l13.04,2.56z" fill="#e1e7ef" id="svg_54"/>
  <path d="m390.49,230.11l14,-10s-20.48,-12.1 -22.92,-10.4s-4.12,17.84 -4.12,17.84l13.04,2.56z" fill="#7d1c5d" id="svg_55"/>
  <path d="m383.89,209.79l-0.42,-0.21a3.63,3.63 0 0 0 -3.93,0.41l-42,34.07s-9.13,12.63 -7.86,34.42l24.77,35.09s2.83,-11.88 6.22,-9.62c0,0 4.81,60.85 0,69.62s-6.93,41.6 -6.93,41.6l16.27,1.84s1.7,-22.22 5.52,-30.14s5.9,-35.15 5.9,-35.15s3.44,-39.56 2.87,-56.54s-5.52,-53.49 -5.52,-53.49s1.39,-21.4 5.11,-31.9z" fill="#67647e" id="svg_56"/>
  <path d="m425.73,224.54l-17.45,-6.46s22.22,-24.34 25,-10.84l-7.55,17.3z" opacity="0.1" id="svg_57"/>
  <path d="m425.73,223.69l-17.45,-6.46s22.22,-24.34 25,-10.84l-7.55,17.3z" fill="#e1e7ef" id="svg_58"/>
  <path d="m425.73,223.69l-17.45,-6.46s22.22,-24.34 25,-10.84l-7.55,17.3z" fill="#7d1c5d" id="svg_59"/>
  <path d="m425.16,202.98a1,1 0 0 1 0.72,0.16l-0.72,-0.16z" opacity="0.1" id="svg_60"/>
  <path d="m426.84,201.29l46.3,10s12.74,2.83 21.94,34.81s-12.6,71.16 -12.6,71.16l-4.81,-4.09l2.41,93.39s-21.37,8.06 -28.16,1s-6.08,-40.22 -6.08,-40.22s-6.51,-61.12 -10.62,-71.17s-2,-82.49 -2,-82.49s-3.78,-12.95 -6.38,-12.39z" fill="#67647e" id="svg_61"/>
  <path d="m469.2,260.8c-0.65,0.6 -1.41,28.86 1.42,50.37a274.5,274.5 0 0 0 8,38.77l-4.2,-86.17s-3.24,-4.81 -5.22,-2.97z" opacity="0.1" id="svg_62"/>
  <path d="m463.54,236.46c1.13,0.71 6.09,12.45 3.82,17.26s-3.82,-17.26 -3.82,-17.26z" opacity="0.1" id="svg_63"/>
  <path d="m419.84,133.65a25.56,25.56 0 0 0 -10.18,-10.66a24.21,24.21 0 0 1 7.63,9c2,4 1.41,8 -2.48,10.19s-5.1,5.92 -7,10.06c-1.77,3.79 -3.72,7.8 -7.3,10c-4.6,2.78 -10.67,1.75 -15.47,4.17a12.08,12.08 0 0 0 -6.4,11.84a34,34 0 0 0 1.37,5.41a38.68,38.68 0 0 1 1.46,11.77a1.58,1.58 0 0 1 -0.16,0.75a1.43,1.43 0 0 1 -1.19,0.57a6.89,6.89 0 0 1 -3.49,-0.65a8.12,8.12 0 0 0 6,2.35a1.18,1.18 0 0 0 1.34,-1.32a38.37,38.37 0 0 0 -1.45,-11.77a32.85,32.85 0 0 1 -1.37,-5.42a12.05,12.05 0 0 1 6.4,-11.83c4.8,-2.42 10.87,-1.4 15.47,-4.17c3.58,-2.16 5.53,-6.17 7.29,-10c1.93,-4.14 3,-7.73 7,-10.06s4.53,-6.26 2.53,-10.23z" opacity="0.1" id="svg_64"/>
  <path d="m800.87,284.37c-13.78,-0.27 -25.94,-10 -32.83,-21.89a22,22 0 0 1 -3.32,-9.37a10.82,10.82 0 0 1 0.38,-2.24a23.24,23.24 0 0 0 1,-3.43a6,6 0 0 0 0,-1.4s0,0 0,-0.08c0.33,-2.53 -1.16,-5 -3,-6.73s-4.15,-3 -6.07,-4.72c-5.92,-5.2 -7.72,-13.54 -7.83,-21.48l0,-0.42c0.07,-3.4 0.34,-6.81 0.31,-10.21a42.93,42.93 0 0 0 -0.25,-5.78c-0.57,-4.81 -2.4,-9.71 -6.18,-12.78c-9.86,-8 -26.44,0.33 -36.65,-7.23c-2.48,-1.85 -4.49,-4.58 -7.5,-5.3c-2.27,-0.55 -4.63,0.19 -6.85,0.93c-7.52,2.48 -15.91,5.74 -18.85,13c-1.68,4.17 -1.21,8.93 -2.75,13.15c-1,2.83 -2.91,5.26 -4.3,7.94a12.43,12.43 0 0 0 -1.6,6.63a7.48,7.48 0 0 0 0.49,3.53a9,9 0 0 0 2.45,3.51a11.65,11.65 0 0 1 -1.46,2.34c-1.92,2.35 -4.87,4 -6.87,6.34c-3.7,4.29 -3.56,10.12 -1.74,15.16s5.11,9.63 7.38,14.54c1,2.13 1.76,4.51 0.75,6.63c-0.71,1.47 -2.18,2.59 -3.32,3.86a12.13,12.13 0 0 0 -3,6.7c-22.51,5.14 -22.53,23.23 -22.53,23.23l0,0l-12.16,30.58s-1.95,5.15 -4.24,11.95l-14.39,-2.58l10,16.74c-1.89,6.82 -3.23,13.14 -2.79,16.32c0,0 -4.47,21 3.48,24.67l17.54,7.89a10.39,10.39 0 0 0 2.43,1.09l0.71,0.32a1.88,1.88 0 0 0 1.64,0l0.05,0l0.19,0a2.36,2.36 0 0 0 1,-0.15a2,2 0 0 0 0.88,-0.95a0.3,0.3 0 0 1 0,-0.1l5.25,-1.52l4.45,5.27c2,1.41 4,2.63 5.89,3.73l-6.89,68.42s-1.11,91 -4.47,111.74c-1.24,7.68 -1.25,12.92 -0.78,16.48l-0.13,0.22c0.83,5.85 3,7 3,7l0,-0.08a0.65,0.65 0 0 0 0.13,0.08a58.91,58.91 0 0 1 3.6,-7.72c0,0.49 0,1 0,1.5c-0.07,7.72 -0.31,18.53 -1.11,25.56c-1.36,12 3.48,51.55 3.48,51.55l1.67,36a33.28,33.28 0 0 1 -4.1,17.54c-4,7.19 -9.11,17.31 -9.48,21.8a4.5,4.5 0 0 0 0,0.73l0,0l-8.58,10.32s-3.35,5.18 4.22,7.27c4.07,1.13 11.09,0 16.73,-1.33a11.18,11.18 0 0 0 8.67,-10.88a38.5,38.5 0 0 1 7.08,-13.59l1.41,8.29l9.44,2.34l1.21,-22.72a10,10 0 0 0 0.65,-4l0,0c1.86,-16.16 -4.38,-14.71 -4.38,-14.71a0.87,0.87 0 0 1 0.3,0.56l-0.3,-0.55l0,0c-3.83,-7.56 -2,-20 -2,-20s5,-36 6.71,-45.51c1.23,-6.72 0.72,-28.72 0.31,-41c0,-0.51 0,-1 -0.05,-1.49c14.64,-0.19 32.58,-0.68 45.17,-1.9l0,1.48l-2.32,85.05a46.69,46.69 0 0 1 -3.26,15.82c0,0.1 -0.07,0.19 -0.11,0.29a69,69 0 0 0 -4.61,22.29l-1.08,27l0,0.75l0,0c-1.88,0.72 -4.85,2.81 -4.93,8.87c-0.13,8.88 15.52,5.92 15.52,5.92c15.64,0 15.77,-16.28 15.77,-16.28s0.49,-14.93 1.24,-24.92s-2.36,-7.79 -2.36,-7.79l-0.24,28.42c0,0.07 0,0.14 0,0.22l0,-24.91l0.24,-3.61l0,-0.1l0,0l0,-0.77l1.97,-29.31s14.41,-48.84 16.64,-58.21c1.59,-6.66 0.93,-26.72 0.41,-37.81c0,-0.51 0,-1 -0.08,-1.47c4.47,-0.4 8.42,-0.44 10,-0.44l0.73,0s-0.74,-78.44 -2.61,-108s-4.84,-56.61 -12.29,-64.75c-4.5,-4.92 -10.77,-20.11 -15,-31.36a156.88,156.88 0 0 0 27.57,9c23.59,4.94 20.36,-15.54 20.36,-15.54l-2.39,-38.73l0.16,0a197.48,197.48 0 0 0 -2.6,-30.28c-1.25,-7.68 -3.16,-15.62 -6.08,-22c2.56,-1 5.09,-2.07 7.57,-3.17c6.41,-2.83 13.63,-6.84 14.55,-13.75l-0.31,0a8.92,8.92 0 0 0 0.24,-1.52zm-146.23,56l0,0c0.05,4 -0.1,10.94 -0.34,18.61l-7.49,-10l7.51,-12.18l0.32,3.57zm100.36,20.31zm3.12,15.13l-12.48,-4a56,56 0 0 1 7.71,-9.54l1.08,-1l-0.39,0.08l0.6,-0.55l0.36,-0.08l-0.57,0.55l0.68,-0.14a21.29,21.29 0 0 0 4.25,8.55c4.48,4.89 -1.23,6.13 -1.23,6.13l-0.01,0z" transform="translate(-65, -5) translate(-31.16, -20.14)" fill="url(#8425757a-56ab-41b8-890b-c9acfe5ccb1b)" id="svg_65"/>
  <polygon transform="translate(-65, -5)" points="651.15 715.66 649.69 743.34 640.38 741.01 638.42 729.5 651.15 715.66" fill="#a27772" id="svg_66"/>
  <polygon transform="translate(-65, -5)" points="651.15 715.66 649.69 743.34 640.38 741.01 638.42 729.5 651.15 715.66" opacity="0.1" id="svg_67"/>
  <path transform="translate(-65, -5)" d="m685.32,747.01l14.2,2.94l10.53,-9.3l0,-26.21l0.24,-3.58l0,-0.11l0,0l0,-0.76l1.96,-29.13s14.21,-48.49 16.42,-57.8c1.56,-6.6 0.91,-26.52 0.39,-37.53c-0.21,-4.51 -0.39,-7.53 -0.39,-7.53l-31.35,-7.59l-0.66,24.1l-2.29,84.44a46.79,46.79 0 0 1 -3.21,15.71l-0.11,0.29a68.72,68.72 0 0 0 -4.55,22.12l-1.06,26.85l0,0.74l-0.12,2.35z" fill="#cc818c" id="svg_68"/>
  <path transform="translate(-65, -5)" d="m710.29,710.01l0,0.74l0,0l0,-0.76l0,0.02z" opacity="0.1" id="svg_69"/>
  <path transform="translate(-65, -5)" d="m685.32,747.01l14.2,2.94l10.53,-9.3l0,-2.23a3,3 0 0 1 -1.51,2.4l-0.15,0.09a28.3,28.3 0 0 1 -15.94,3.15l-5.54,-0.47a5.19,5.19 0 0 0 -1.47,0.36l0,0.74l-0.12,2.32z" opacity="0.1" id="svg_70"/>
  <path transform="translate(-65, -5)" d="m708.39,741.64l0.15,-0.08a3,3 0 0 0 1.53,-2.6l0.23,-28.21s3.06,-2.19 2.32,7.73s-1.22,24.74 -1.22,24.74s-0.12,16.16 -15.55,16.16c0,0 -15.43,2.94 -15.31,-5.88s6.37,-9.18 6.37,-9.18l5.54,0.48a28.23,28.23 0 0 0 15.94,-3.16z" fill="#b07473" id="svg_71"/>
  <path transform="translate(-65, -5)" d="m611.36,741.01c0.36,6.37 19.1,2.69 19.1,2.69l12.61,-24.48s10.53,-8.09 5.26,-15.19a11.33,11.33 0 0 1 -0.77,-1.21s0,0 -0.05,-0.06l0,0c-0.11,-0.18 -0.21,-0.37 -0.31,-0.57l0,0c-3.78,-7.5 -1.92,-19.8 -1.92,-19.8s4.89,-35.76 6.61,-45.19c1.21,-6.66 0.71,-28.51 0.31,-40.73c-0.16,-5.08 -0.31,-8.49 -0.31,-8.49l-31.11,-8.33s0,3.88 0,9.28c-0.07,7.67 -0.31,18.4 -1.1,25.38c-1.34,11.87 3.43,51.18 3.43,51.18l1.65,35.77a33.13,33.13 0 0 1 -4,17.41c-3.9,7.14 -9,17.2 -9.35,21.65a4.38,4.38 0 0 0 -0.05,0.69z" fill="#cc818c" id="svg_72"/>
  <path transform="translate(-65, -5)" d="m611.36,741.01c0.36,6.37 19.1,2.69 19.1,2.69l12.61,-24.48s10.53,-8.09 5.26,-15.19a11.33,11.33 0 0 1 -0.77,-1.21c-0.17,3.71 -4.24,13 -4.24,13s-10.41,20.83 -13.72,25.6s-17.69,-0.89 -18.23,-1.09a4.38,4.38 0 0 0 -0.01,0.68z" opacity="0.1" id="svg_73"/>
  <path transform="translate(-65, -5)" d="m647.2,702.16s6.16,-1.43 4.32,14.61l0,0a10.33,10.33 0 0 1 -4.87,9.17c-4.41,2.77 -11.21,8.73 -14.65,20.32l0,0a11.08,11.08 0 0 1 -8.55,10.8c-5.56,1.3 -12.49,2.44 -16.5,1.32c-7.47,-2.08 -4.16,-7.22 -4.16,-7.22l8.57,-10.17s14.94,5.88 18.24,1.1s13.72,-25.59 13.72,-25.59s5.71,-12.99 3.88,-14.34z" fill="#b07473" id="svg_74"/>
  <path transform="translate(-65, -5)" d="m697.32,573.38l-0.66,24.1c8.35,-0.81 14.33,-1.94 15.35,-3.53c2.21,-3.42 10.23,-4.86 17.05,-5.45c-0.21,-4.51 -0.39,-7.53 -0.39,-7.53l-31.35,-7.59z" opacity="0.1" id="svg_75"/>
  <path transform="translate(-65, -5)" d="m620.78,591.86a11.44,11.44 0 0 1 3.43,-4.14c3.3,-1.83 2.94,11.76 2.94,11.76s11,0.1 25.05,-0.08c-0.16,-5.08 -0.31,-8.5 -0.31,-8.5l-31.11,-8.32s0.06,3.86 0,9.28z" opacity="0.1" id="svg_76"/>
  <path transform="translate(-65, -5)" d="m617.23,595.08s3.68,-10 7,-11.78s2.94,11.75 2.94,11.75s80.82,0.74 84.86,-5.51s27.55,-5.88 27.55,-5.88s-0.73,-77.88 -2.57,-107.26s-4.77,-56.21 -12.12,-64.29c-4.75,-5.23 -11.51,-22.15 -15.69,-33.43c-2.27,-6.16 -3.78,-10.65 -3.78,-10.65l-77.14,4.4l-0.63,6.25l-8.19,81.92s-1.1,90.37 -4.41,110.94s2.18,23.54 2.18,23.54z" fill="#444053" id="svg_77"/>
  <g transform="translate(-65, -5)" opacity="0.1" id="svg_78">
   <path d="m705.75,589.54c4,-6.24 27.55,-5.88 27.55,-5.88s-0.73,-77.88 -2.57,-107.26s-4.77,-56.21 -12.12,-64.29c-4.77,-5.25 -11.51,-22.15 -15.69,-33.43c-1.91,-5.18 -3.28,-9.17 -3.66,-10.31l6,-0.34s1.51,4.49 3.79,10.65c4.18,11.28 10.93,28.2 15.68,33.43c7.35,8.08 10.29,34.9 12.12,64.29s2.58,107.26 2.58,107.26s-23.51,-0.36 -27.56,5.88c-3.45,5.33 -62.92,5.58 -80.18,5.53c22.15,-0.05 70.94,-0.71 74.06,-5.53z" id="svg_79"/>
   <path d="m617.95,583.3c1.49,-0.83 2.23,1.47 2.6,4.26a57.68,57.68 0 0 0 -3.47,7.52s-2.13,-1.15 -3,-7c1.22,-2.09 2.57,-4.06 3.87,-4.78z" id="svg_80"/>
  </g>
  <path transform="translate(-65, -5)" d="m641.07,179.6c-5.34,7.28 0.06,17.63 -5.67,24.71c-1.89,2.34 -4.8,4 -6.77,6.3c-3.65,4.26 -3.51,10.05 -1.72,15.05s5,9.56 7.28,14.44c1,2.11 1.74,4.48 0.74,6.58c-0.7,1.46 -2.15,2.57 -3.28,3.83c-3.68,4.11 -3.78,9.82 -1.8,14.66s5.76,9 9.49,13.1c1.47,1.61 3.33,3.39 5.78,3.34a8,8 0 0 0 3.63,-1.19a37,37 0 0 0 16.84,-48.29c-3.1,-7.43 -8.27,-14.55 -8.32,-22.4c0,-6.23 3.2,-12.18 3.77,-18.38c0.69,-7.54 -3.77,-19.51 -12.87,-22.8c0.6,4.84 -4.39,7.31 -7.1,11.05z" fill="#585268" id="svg_81"/>
  <path transform="translate(-65, -5)" d="m641.07,179.6c-5.34,7.28 0.06,17.63 -5.67,24.71c-1.89,2.34 -4.8,4 -6.77,6.3c-3.65,4.26 -3.51,10.05 -1.72,15.05s5,9.56 7.28,14.44c1,2.11 1.74,4.48 0.74,6.58c-0.7,1.46 -2.15,2.57 -3.28,3.83c-3.68,4.11 -3.78,9.82 -1.8,14.66s5.76,9 9.49,13.1c1.47,1.61 3.33,3.39 5.78,3.34a8,8 0 0 0 3.63,-1.19a37,37 0 0 0 16.84,-48.29c-3.1,-7.43 -8.27,-14.55 -8.32,-22.4c0,-6.23 3.2,-12.18 3.77,-18.38c0.69,-7.54 -3.77,-19.51 -12.87,-22.8c0.6,4.84 -4.39,7.31 -7.1,11.05z" opacity="0.1" id="svg_82"/>
  <path transform="translate(-65, -5)" d="m700.29,444.41c-10.69,0.56 -20.75,5.16 -30.11,10.36s-18.42,11.09 -28.49,14.78" opacity="0.1" id="svg_83"/>
  <path transform="translate(-65, -5)" d="m693.65,469.6a44.07,44.07 0 0 0 -27.75,13.5c-2.6,2.75 -4.84,5.83 -7.55,8.47a33.54,33.54 0 0 1 -14.88,8.43" opacity="0.1" id="svg_84"/>
  <path transform="translate(-65, -5)" d="m695.84,488.77a48.52,48.52 0 0 0 -22.32,13.46c-1.64,1.77 -3.13,3.66 -4.77,5.43c-8.85,9.5 -21.35,14.54 -33.42,19.31" opacity="0.1" id="svg_85"/>
  <path transform="translate(-65, -5)" d="m694.93,222.92a219.46,219.46 0 0 0 2.2,25.52c1,6 2.4,11.4 4.41,13.79c5.88,7 -28.65,16.35 -28.65,16.35l-20.39,-15.8s16.16,-14.88 8.63,-29.39s33.8,-10.47 33.8,-10.47z" fill="#cc818c" id="svg_86"/>
  <path transform="translate(-65, -5)" d="m627.63,378.68l81.55,0c-2.27,-6.16 -3.78,-10.65 -3.78,-10.65l-77.14,4.4l-0.63,6.25z" opacity="0.1" id="svg_87"/>
  <path transform="translate(-65, -5)" d="m622.38,377.21l87.19,0c-2.45,-8.77 0,-16.88 3.49,-23.12a51.1,51.1 0 0 1 9.13,-11.84l0.6,-0.55l30.44,-6.74l1.64,-0.36s0.25,-55.35 -19.35,-62.95s-31.35,-17.87 -31.35,-17.87l-26.93,8.32l-19.84,-10c-6.37,6.85 -23.27,4.16 -23.27,4.16c-27.67,3.18 -27.67,24 -27.67,24s16.16,37.71 17.39,37.71s-1.47,59.24 -1.47,59.24z" fill="#7d1c5d" id="svg_88"/>
  <path transform="translate(-65, -5)" d="m652.48,342.02s-17.78,-3.94 -23.83,-10.83" opacity="0.1" id="svg_89"/>
  <path transform="translate(-65, -5)" d="m742.13,321.37l-20.62,16.9a35.13,35.13 0 0 0 0.68,4l0.6,-0.55l30.44,-6.74l-11.1,-13.61z" opacity="0.1" id="svg_90"/>
  <path transform="translate(-65, -5)" d="m686.3,371.33s4.51,2.54 11.42,5.88l11.85,0c-2.45,-8.77 0,-16.88 3.49,-23.12l-20.89,-6.76c7.11,6.61 -5.87,24 -5.87,24z" opacity="0.1" id="svg_91"/>
  <path transform="translate(-65, -5)" d="m618.7,273.62l-12.24,6.61l-12,30.37s-12.49,33.3 -11.27,42.12c0,0 -4.4,20.82 3.43,24.49l20.4,9.24a1.9,1.9 0 0 0 2.45,-2.62c-2.91,-5.51 -6.11,-14.13 -1,-18.87l-5.88,-12.24l21.25,-34.78l7.1,-12l-12.24,-32.32z" fill="#7d1c5d" id="svg_92"/>
  <path transform="translate(-65, -5)" d="m645.93,335.07c1.06,4.32 4.64,11 16.49,13.49l13,10.65l13.83,6.27l5.64,2.55l2.39,-17.27l-5.43,-3l-6.33,-3.46s-14.28,-25.87 -36.89,-15a5,5 0 0 0 -2.7,5.77z" opacity="0.1" id="svg_93"/>
  <path transform="translate(-65, -5)" d="m646.67,333.6c1.06,4.33 4.63,11 16.48,13.49l13,10.65l13.84,6.27l5.63,2.55l2.39,-17.27l-5.43,-3l-6.28,-3.43s-14.29,-25.87 -36.9,-14.95a5,5 0 0 0 -2.73,5.69z" fill="#cc818c" id="svg_94"/>
  <circle transform="translate(-65, -5)" cx="672.15" cy="213.73" r="31.59" opacity="0.1" id="svg_95"/>
  <circle transform="translate(-65, -5)" cx="672.15" cy="213" r="31.59" fill="#cc818c" id="svg_96"/>
  <path transform="translate(-65, -5)" d="m691.72,280.5l-9.5,-18.46s13.9,-5.62 14.91,-12.13s13.32,7.63 10.66,12.32s-16.07,18.27 -16.07,18.27z" opacity="0.1" id="svg_97"/>
  <path transform="translate(-65, -5)" d="m691.72,279.03l-9.5,-18.46s13.9,-5.62 14.91,-12.13s13.32,7.64 10.66,12.32s-16.07,18.27 -16.07,18.27z" fill="#7d1c5d" id="svg_98"/>
  <path transform="translate(-65, -5)" d="m613.97,326.72l52.49,70.57s-19.35,10.53 -46,-8.32l-11.51,-13.72l-32.86,-55.39l37.88,6.86z" fill="#f6f8fb" id="svg_99"/>
  <path transform="translate(-65, -5)" d="m603.64,365.09l4.78,-0.13s29.2,-28.34 36.37,-14s-18.19,27.74 -18.19,27.74l-7.71,4.16l-10.05,3l-6.43,-8.63l1.23,-12.14z" fill="#cc818c" id="svg_100"/>
  <path transform="translate(-65, -5)" d="m610.69,380.4c0.44,1.63 0.86,3.43 0.12,4.94a2,2 0 0 1 -0.87,0.95a2.23,2.23 0 0 1 -1,0.14a10.05,10.05 0 0 1 -6.59,-3.26a30.1,30.1 0 0 1 -4.27,-6.18c-1.3,-2.27 -2.65,-4.78 -2.19,-7.36c0.52,-2.81 3,-4.76 5.43,-6.34c4.84,-3.2 5,0.53 6.06,4.65s2.2,8.3 3.31,12.46z" opacity="0.1" id="svg_101"/>
  <path transform="translate(-65, -5)" d="m609.96,380.4c0.43,1.63 0.86,3.43 0.12,4.94a2,2 0 0 1 -0.87,0.95a2.25,2.25 0 0 1 -1,0.14a10,10 0 0 1 -6.59,-3.26a29.75,29.75 0 0 1 -4.28,-6.18c-1.3,-2.27 -2.65,-4.78 -2.18,-7.36c0.51,-2.81 3,-4.76 5.42,-6.34c4.85,-3.2 5,0.53 6.07,4.65s2.19,8.3 3.31,12.46z" fill="#7d1c5d" id="svg_102"/>
  <polygon transform="translate(-65, -5)" points="623.85 317.94 626.29 313.81 624.16 321.48 623.85 317.94" opacity="0.1" id="svg_103"/>
  <path transform="translate(-65, -5)" d="m690.03,364.01l5.63,2.55l2.39,-17.27l-5.43,-3c3.75,4.3 0.47,12.25 -2.59,17.72z" opacity="0.1" id="svg_104"/>
  <path transform="translate(-65, -5)" d="m712.63,343.96s-18.18,1.11 -25.9,-3.85" opacity="0.1" id="svg_105"/>
  <g transform="translate(-65, -5)" opacity="0.1" id="svg_106">
   <path d="m710.37,355.56a51.18,51.18 0 0 1 9.13,-11.85a24.37,24.37 0 0 1 2.69,-1.46l28.34,-5.82l1.64,-0.36s0.25,-55.35 -19.34,-62.95a117.72,117.72 0 0 1 -30.56,-17.21l2.15,-0.66s11.75,10.28 31.35,17.87s19.34,62.95 19.34,62.95l-2.94,0l-29,5.55s-1.25,1.21 -1.63,1.56a56.2,56.2 0 0 0 -9.27,12.26a30.74,30.74 0 0 0 -2.43,23.24l-3,0c-2.42,-8.77 0.08,-16.88 3.53,-23.12z" id="svg_107"/>
   <path d="m632.97,257.86c0.47,-0.07 0.92,-0.14 1.41,-0.19a50.71,50.71 0 0 0 6,0.49a54.54,54.54 0 0 1 -7.41,-0.3z" id="svg_108"/>
   <path d="m674.54,263.57l-17.94,-9.08a9.48,9.48 0 0 0 1,-0.95l18.72,9.47l-1.78,0.56z" id="svg_109"/>
  </g>
  <path transform="translate(-65, -5)" d="m742.84,319.86l12,14.7l2.45,39.92s3.18,20.32 -20.08,15.42s-50.18,-20.04 -50.18,-20.04s13,-17.39 5.88,-24l33.31,10.78s5.63,-1.23 1.22,-6.12s-5.19,-13.72 -5.19,-13.72l20.59,-16.94z" fill="#7d1c5d" id="svg_110"/>
  <path transform="translate(-65, -5)" d="m748.26,362.03l6.61,7.59a9.53,9.53 0 0 1 -6.61,-7.59z" opacity="0.1" id="svg_111"/>
  <polygon transform="translate(-65, -5)" points="736.99 360.8 747.28 374.02 742.14 375.25 736.99 360.8" opacity="0.1" id="svg_112"/>
  <path transform="translate(-65, -5)" d="m634.42,198.5c-1.13,-2.77 -0.26,-6 1.1,-8.61s3.23,-5.08 4.25,-7.89c1.51,-4.18 1.05,-8.91 2.7,-13c2.91,-7.25 11.18,-10.49 18.59,-13c2.19,-0.73 4.52,-1.46 6.76,-0.92c3,0.71 4.95,3.43 7.4,5.26c10.06,7.5 26.42,-0.76 36.15,7.18c3.72,3 5.53,7.91 6.09,12.68s0,9.61 -0.06,14.42c-0.16,8.42 1.42,17.63 7.72,23.21c1.9,1.68 4.14,2.94 6,4.68s3.32,4.17 3,6.69a23.19,23.19 0 0 1 -1,3.4c-1.25,4.39 0.62,9 2.9,13c6.8,11.77 18.79,21.47 32.38,21.74c-0.91,6.86 -8,10.84 -14.35,13.65c-8,3.59 -16.52,7.11 -25.33,6.66s-18,-6.09 -19.54,-14.77c-0.53,-3 -0.46,-6.61 -3,-8.17c-1.56,-0.95 -3.58,-0.71 -5.26,-1.42c-2.43,-1 -3.63,-3.73 -4.43,-6.24a56.16,56.16 0 0 1 -2.61,-16c-0.11,-6.44 0.74,-13.47 -2.91,-18.77c-3.38,-4.91 -9.38,-7.4 -13.28,-11.91c-3.6,-4.18 -7.51,-9.22 -13.41,-10c-8.16,-1.15 -25.04,9.94 -29.86,-1.87z" opacity="0.1" id="svg_113"/>
  <path transform="translate(-65, -5)" d="m634.42,197.03c-1.13,-2.77 -0.26,-6 1.1,-8.61s3.23,-5.08 4.25,-7.89c1.51,-4.18 1.05,-8.91 2.7,-13c2.91,-7.26 11.18,-10.5 18.59,-13c2.19,-0.73 4.52,-1.46 6.76,-0.92c3,0.71 4.95,3.43 7.4,5.26c10.06,7.5 26.42,-0.76 36.15,7.18c3.72,3 5.53,7.91 6.09,12.69s0,9.6 -0.06,14.41c-0.16,8.42 1.42,17.63 7.72,23.21c1.9,1.68 4.14,2.94 6,4.68s3.32,4.17 3,6.69a23.19,23.19 0 0 1 -1,3.4c-1.25,4.39 0.62,9 2.9,13c6.82,11.73 18.76,21.46 32.35,21.73c-0.91,6.86 -8,10.84 -14.35,13.66c-8,3.58 -16.52,7.1 -25.33,6.65s-18,-6.09 -19.54,-14.77c-0.53,-3 -0.46,-6.61 -3,-8.17c-1.56,-0.95 -3.58,-0.71 -5.26,-1.42c-2.43,-1 -3.63,-3.73 -4.43,-6.24a56.1,56.1 0 0 1 -2.61,-16c-0.11,-6.44 0.74,-13.47 -2.91,-18.77c-3.38,-4.91 -9.38,-7.4 -13.28,-11.91c-3.6,-4.18 -7.51,-9.22 -13.41,-10c-8.13,-1.14 -25.01,9.97 -29.83,-1.86z" fill="#585268" id="svg_114"/>
  <path transform="translate(-65, -5)" d="m656.84,278.21l18.11,-14.7s-12.4,-6.72 -13.88,-12.45s-11.4,2.72 -10.39,7.86s6.16,19.29 6.16,19.29z" opacity="0.1" id="svg_115"/>
  <path transform="translate(-65, -5)" d="m657.55,276l18.11,-14.69s-12.4,-6.72 -13.82,-12.45s-11.4,2.72 -10.39,7.86s6.1,19.28 6.1,19.28z" fill="#7d1c5d" id="svg_116"/>
  <circle transform="translate(-65, -5)" cx="676.37" cy="273.61" r="1.44" opacity="0.1" id="svg_117"/>
  <circle transform="translate(-65, -5)" cx="676.37" cy="281.61" r="1.44" opacity="0.1" id="svg_118"/>
  <circle transform="translate(-65, -5)" cx="676.37" cy="289.6" r="1.44" opacity="0.1" id="svg_119"/>
  <g transform="translate(-65, -5)" opacity="0.1" id="svg_120">
   <path d="m641.73,176.61c1.43,-3.93 1.12,-8.34 2.46,-12.3a13.44,13.44 0 0 0 -1.53,2.82c-1.66,4.13 -1.19,8.86 -2.71,13l-0.1,0.24a22.85,22.85 0 0 0 1.88,-3.76z" id="svg_121"/>
   <path d="m755.98,275.6c-8,3.58 -16.52,7.1 -25.33,6.65s-18,-6.09 -19.54,-14.76c-0.53,-3 -0.46,-6.62 -3,-8.18c-1.56,-0.95 -3.58,-0.71 -5.26,-1.42c-2.43,-1 -3.63,-3.73 -4.43,-6.24a56.1,56.1 0 0 1 -2.61,-16c-0.11,-6.43 0.75,-13.46 -2.9,-18.77c-3.39,-4.91 -9.39,-7.39 -13.29,-11.91c-3.6,-4.17 -7.51,-9.22 -13.41,-10c-8.09,-1.1 -25,10 -29.78,-1.82a9.3,9.3 0 0 1 0.31,-6.83c-0.35,0.59 -0.69,1.18 -1,1.78c-1.36,2.66 -2.22,5.85 -1.09,8.62c4.81,11.8 21.69,0.71 29.78,1.82c5.9,0.8 9.81,5.85 13.41,10c3.9,4.52 9.9,7 13.28,11.92c3.66,5.3 2.8,12.33 2.91,18.76a56.1,56.1 0 0 0 2.61,16c0.8,2.52 2,5.22 4.43,6.24c1.68,0.71 3.7,0.48 5.26,1.42c2.58,1.56 2.51,5.21 3,8.18c1.56,8.67 10.74,14.31 19.54,14.76s17.28,-3.06 25.33,-6.65c5.8,-2.58 12.26,-6.15 14,-12c-2.78,3.8 -7.7,6.42 -12.22,8.43z" id="svg_122"/>
  </g>
  <path d="m963.87,352.18c-21.17,-12.18 -29.17,-15.18 -29.21,-15.18l-0.44,-0.31a17.61,17.61 0 0 1 -5.33,-6.74a14.07,14.07 0 0 1 0,-1.45a0.61,0.61 0 0 0 0,0.14c0.33,-6.45 4.92,-12.32 9.27,-17.44l11.13,-13.09a12.9,12.9 0 0 0 2.87,-4.54a10.47,10.47 0 0 0 0.3,-2.79c0,-0.38 0,-0.76 0,-1.14c-0.06,-3.25 -0.15,-6.51 -0.27,-9.76c-0.1,-2.84 -0.83,-6.42 -3.67,-7c-1.48,-0.3 -3.44,0.23 -4.22,-1a2.43,2.43 0 0 1 -0.19,-1.69a0.58,0.58 0 0 0 0,0.14l0,-0.16a37.67,37.67 0 0 0 1.05,-6.69a9.12,9.12 0 0 0 -0.46,-3.39c-1.64,-4.71 -7.31,-6.65 -12.32,-7.54s-10.63,-1.65 -13.77,-5.57a40.73,40.73 0 0 0 -2.74,-3.77a10.81,10.81 0 0 0 -5.12,-2.53a29,29 0 0 0 -18.63,1.62c-2.42,1.08 -4.85,2.54 -7.51,2.38s-5.12,-2.08 -7.84,-2.54c-4.4,-0.75 -8.61,2.48 -10.78,6.31a15.43,15.43 0 0 0 -2,7.44l0,0.44l0,0a10.88,10.88 0 0 0 2.86,7.6c1.9,2 4.72,3.32 5.51,5.91c0.32,1.05 0.24,2.19 0.53,3.26a2.91,2.91 0 0 0 0.12,0.39l-0.14,0.19a33,33 0 0 0 -7,20.34a33.76,33.76 0 0 0 23.72,32c0,0.33 0,0.66 0,1c0,4 -1.15,8.17 -4.6,11.2l-29.99,11.98s-18.08,-2.15 -24.6,24.27a45.05,45.05 0 0 0 -1.12,13.4c0.24,4 -0.31,11 -5,20.07c-7.41,14.52 -5.72,47.85 9.44,51.15c14.31,3.12 19.91,1.82 20.5,1.67l0,0.58c-0.24,6.26 -2.51,60.2 -10.76,66.72c-2.28,1.81 -1.86,3 0,3.85c0,0 0,0.35 -0.05,1c-0.25,4 -1.52,19 -7,27.52c-6.41,9.9 -5.74,67 -5.74,67l-4.37,33.66s2.69,20.79 0,24.42c-2.41,3.23 -5.61,80.14 -6.28,96.82l-0.28,0a8.12,8.12 0 0 0 -6.48,4c-3.54,5.75 -15.94,16.38 -15.94,16.38c-2.69,3.82 -12.64,7.48 -17.9,9.2a11.12,11.12 0 0 0 -2,0.88a10.67,10.67 0 0 0 -4.52,4.76a5.11,5.11 0 0 0 -0.48,4c1.34,3.29 29.31,5.61 36.39,2.3c5.56,-2.59 27.6,-6 36.75,-7.34a7.54,7.54 0 0 0 6.54,-6.54a4.31,4.31 0 0 0 -0.84,-3.27a0,0 0 0 0 0,0c-1.75,-2.17 -2.64,-8.1 -3,-12a8.11,8.11 0 0 0 2.06,-1.22a87.85,87.85 0 0 1 5,-35.31c6.74,-17.82 8.76,-50.82 7.08,-72.27c0,0 20.55,-88.44 36.73,-96.69l0,0c0.25,0.32 8.1,10.39 9.1,41.58c1,31.68 12.46,52.47 12.46,52.47s-5.06,53.79 0,73.92l-6.61,31.75c-0.49,-0.41 -0.8,-0.73 -0.8,-0.73s0.2,0.88 0.47,2.29l-0.14,0.68l0.29,0.06c0.75,4 1.86,10.89 1.4,15c-0.26,2.31 -0.91,5.48 -1.35,8.59c-0.7,4.89 -0.89,9.63 1.68,10.67c4.22,1.7 29,4 33.2,-1.44a7.79,7.79 0 0 0 1.22,-8.15a8.25,8.25 0 0 0 -1.22,-2.08s-6.58,-10.75 -4.72,-18.33a5.58,5.58 0 0 0 -0.79,-4.35c0.29,-3.72 1.79,-20.94 5.67,-35.56c4.22,-15.88 13.11,-50.7 6.57,-73.59l0,0q-0.37,-1.35 -0.84,-2.64a98.84,98.84 0 0 1 -3.71,-38.61a78.69,78.69 0 0 1 0,-33.66c4.05,-18.48 6.88,-36.63 6.88,-36.63s2.23,-24.42 0.28,-39.39c0,-0.32 -0.09,-0.64 -0.13,-1l1.06,-0.24s-5.73,-25.41 -7.75,-41.58c-0.48,-3.82 -1.1,-8.65 -1.78,-13.81a35.25,35.25 0 0 0 5.49,-1.37c18.19,-6.27 23.92,-63 23.92,-63l0,-18s6.12,-27.67 -15.11,-39.88zm-135.56,438.24c-0.56,-0.28 -0.89,-0.47 -0.89,-0.47l0,0l0.89,0.47z" transform="translate(-65, -5) translate(-31.16, -20.14)" fill="url(#422858ff-741c-491e-b83f-4f975ae951a6)" id="svg_123"/>
  <path transform="translate(-65, -5)" d="m921.73,659.57c7.89,22.69 -1.32,59.52 -5.6,76s-5.59,36.18 -5.59,36.18c-16.77,2.63 -28.94,-0.66 -28.94,-0.66l6.91,-33.87c-4.94,-20.06 0,-73.67 0,-73.67s-11.18,-20.72 -12.17,-52.29c-1,-31.07 -8.63,-41.12 -8.87,-41.43l0,0c-15.78,8.22 -35.84,96.36 -35.84,96.36c1.64,21.37 -0.34,54.26 -6.91,72a89,89 0 0 0 -4.93,35.18c-2.3,2 -5.5,2.28 -9,1.72c-9.39,-1.52 -20.65,-9.61 -20.65,-9.61s3.61,-96 6.25,-99.64s0,-24.34 0,-24.34l4.27,-33.54s-0.66,-56.9 5.59,-66.76c5.4,-8.52 6.64,-23.5 6.88,-27.43c0,-0.62 0,-1 0,-1l9.52,-11.4s92.08,-6.91 99,0c1.69,1.69 2.74,5.55 3.36,10.4c1.9,14.92 -0.28,39.25 -0.28,39.25s-2.76,18.09 -6.71,36.5a80.12,80.12 0 0 0 0,33.55a100.43,100.43 0 0 0 3.71,38.5z" fill="#65617d" id="svg_124"/>
  <path transform="translate(-65, -5)" d="m915.97,803.77c-4.11,5.43 -28.28,3.13 -32.4,1.44c-2.51,-1 -2.32,-5.77 -1.64,-10.64c0.43,-3.09 1.06,-6.25 1.32,-8.55c0.65,-5.92 -2,-17.93 -2,-17.93s5.42,5.76 6.73,0c0.58,-2.52 2.6,-3.81 4.7,-4.46a12.28,12.28 0 0 1 8.54,0.53c4.27,1.86 11.39,5.81 10.12,11.15c-1.81,7.55 4.6,18.27 4.6,18.27a8.32,8.32 0 0 1 1.2,2.06a7.89,7.89 0 0 1 -1.17,8.13z" fill="#a27772" id="svg_125"/>
  <path transform="translate(-65, -5)" d="m915.97,803.77c-4.11,5.43 -28.28,3.13 -32.4,1.44c-2.51,-1 -2.32,-5.77 -1.64,-10.64c2.6,1.22 7,2.23 14.37,1.55a40.54,40.54 0 0 1 5.17,-0.16a120.23,120.23 0 0 0 15.7,-0.32a7.89,7.89 0 0 1 -1.2,8.13z" opacity="0.1" id="svg_126"/>
  <path transform="translate(-65, -5)" d="m831.62,666.15c1.64,21.37 -0.34,54.26 -6.91,72a89,89 0 0 0 -4.93,35.18c-2.3,2 -5.5,2.28 -9,1.72c2,-13.87 10.44,-73.63 15.85,-120.85c6.17,-53.77 35,-90.76 35,-90.76l5.75,6.33c-15.7,8.24 -35.76,96.38 -35.76,96.38z" opacity="0.1" id="svg_127"/>
  <path transform="translate(-65, -5)" d="m906.1,320.51l-4,19.73l-19.67,33.05l-24.25,-10.36s-33,-34.53 -12.25,-39.46a18.36,18.36 0 0 0 6.88,-3.06c4.07,-3.07 5.35,-7.53 5.37,-11.9a36.48,36.48 0 0 0 -3.34,-14.14l42.42,-13.32a68.09,68.09 0 0 0 -3,17.18c-0.33,11.56 4,17.25 7.49,20a12.74,12.74 0 0 0 4.35,2.28z" fill="#fbbebe" id="svg_128"/>
  <path transform="translate(-65, -5)" d="m897.22,281.05a68.09,68.09 0 0 0 -3,17.18a32.29,32.29 0 0 1 -2.47,2.63a33.56,33.56 0 0 1 -33.54,7.65a36.48,36.48 0 0 0 -3.37,-14.14l42.38,-13.32z" opacity="0.1" id="svg_129"/>
  <path transform="translate(-65, -5)" d="m902.09,275.62a33.55,33.55 0 1 1 -33.55,-33.54a33.39,33.39 0 0 1 33.55,33.54z" fill="#fbbebe" id="svg_130"/>
  <path transform="translate(-65, -5)" d="m906.1,320.51l-4,19.73l-19.67,33.05l-24.25,-10.36s-33,-34.53 -12.25,-39.46a18.36,18.36 0 0 0 6.88,-3.06c-3.74,10.28 11.7,31.67 11.7,31.67c1.8,2.65 5.92,1 5.92,1c9.95,-1.51 28.26,-30.12 31.25,-34.88a12.74,12.74 0 0 0 4.42,2.31z" opacity="0.1" id="svg_131"/>
  <path transform="translate(-65, -5)" d="m925.09,511.79c-5.84,1.33 -38.15,8.48 -50.4,6.69c-13.48,-2 -39.69,-3.28 -39.69,-3.28s-16.69,0.9 -21.83,-1.45c0,-0.62 0,-1 0,-1l9.52,-11.4s92.08,-6.91 99,0c1.73,1.73 2.78,5.59 3.4,10.44z" opacity="0.1" id="svg_132"/>
  <path transform="translate(-65, -5)" d="m864.5,353.07s-17.35,-24 -10.81,-33.4l-29.31,12s-17.64,-2.14 -24,24.19a45.81,45.81 0 0 0 -1.09,13.36c0.24,4 -0.3,11 -4.83,20c-7.23,14.47 -5.59,47.69 9.21,51s20.05,1.64 20.05,1.64s-2,60.18 -10.52,67.09s21.8,5.26 21.8,5.26s26.21,1.32 39.7,3.29s51.3,-6.91 51.3,-6.91s-5.59,-25.32 -7.57,-41.43s-6.59,-50.43 -6.59,-50.43l33.54,-45.44s5.92,-27.46 -14.8,-39.63s-28.51,-15.15 -28.51,-15.15s-20.82,33.9 -31.67,35.54c0.02,0 -4.1,1.66 -5.9,-0.98z" fill="#7d1c5d" id="svg_133"/>
  <path transform="translate(-65, -5)" d="m826.02,362.6s-0.32,10.86 1.65,15.13s9.21,28 9.21,28l-16.45,0s8.88,-9.54 8.23,-14.15s-2.64,-28.98 -2.64,-28.98z" opacity="0.1" id="svg_134"/>
  <path transform="translate(-65, -5)" d="m874.7,444.49s-36.32,-8.88 -39.7,-16.44s-12.71,-24.49 -12.71,-24.49l3.83,-5.16l17.66,13.86s21,16.77 30.92,18.42s0,13.81 0,13.81z" fill="#fbbebe" id="svg_135"/>
  <path transform="translate(-65, -5)" d="m874.7,444.49s-36.32,-8.88 -39.7,-16.44s-12.71,-24.49 -12.71,-24.49l3.83,-5.16l17.66,13.86s21,16.77 30.92,18.42s0,13.81 0,13.81z" opacity="0.05" id="svg_136"/>
  <path transform="translate(-65, -5)" d="m906.1,401.74l0,19.7l-3.16,0a92.07,92.07 0 0 0 -44.72,11.58l-5.94,3.29l-1.59,0.89l-10.2,-23l9.54,-8.55l0.49,0c2.33,0.23 12.42,1.07 16.7,-0.37c4.06,-1.38 9.1,-5.75 21.06,-2.7c5.89,1.51 10.93,8.11 16.64,6.05l1.18,-6.89z" fill="#fbbebe" id="svg_137"/>
  <path transform="translate(-65, -5)" d="m937.84,365.86l6.57,7.4l0,17.93s-5.59,56.56 -23.34,62.81s-49.46,-3.62 -49.46,-3.62s-8.19,-21.7 -4.36,-23s33.85,-9.24 33.85,-9.24s-0.42,-33.18 6.15,-43.05c0,0 -4.27,-30.91 10.53,-31.57s20.06,22.34 20.06,22.34z" opacity="0.1" id="svg_138"/>
  <path transform="translate(-65, -5)" d="m938.84,365.86l6.58,7.4l0,17.93s-5.59,56.56 -23.35,62.81s-49.46,-3.62 -49.46,-3.62s-8.19,-21.7 -4.35,-23s33.85,-9.24 33.85,-9.24s-0.43,-33.18 6.15,-43.05c0,0 -4.28,-30.91 10.52,-31.57s20.06,22.34 20.06,22.34z" fill="#7d1c5d" id="svg_139"/>
  <path transform="translate(-65, -5)" d="m892.89,289.86a13.22,13.22 0 0 0 -0.75,-6.41c-0.93,-2 -3.1,-3.51 -5.22,-3c-2.81,0.66 -4,4.32 -6.78,5.2c-2.33,0.74 -4.87,-0.91 -6,-3.08s-1.14,-4.72 -1.14,-7.16c0,-2.74 0,-5.49 0,-8.24c0,-3 -0.1,-6.22 -1.94,-8.57c-2.29,-2.92 -7.68,-4.2 -11.28,-4.08a9.57,9.57 0 0 0 -6.44,2.59c-1.92,1.64 -4.15,2.84 -6.77,2.41a5.83,5.83 0 0 1 -4.72,-4.08l0,-0.1a33.54,33.54 0 1 1 49.86,44.52a90.43,90.43 0 0 0 1.18,-10z" opacity="0.1" id="svg_140"/>
  <path transform="translate(-65, -5)" d="m846.57,258.55a5.88,5.88 0 0 1 -4.73,-4.09c-0.27,-1.06 -0.2,-2.19 -0.51,-3.24c-0.77,-2.59 -3.53,-3.93 -5.38,-5.9c-3.7,-3.93 -3.46,-10.39 -0.84,-15.12c2.12,-3.81 6.22,-7 10.52,-6.28c2.66,0.46 5,2.35 7.66,2.53s5,-1.29 7.33,-2.37a27.62,27.62 0 0 1 18.22,-1.62a10.5,10.5 0 0 1 5,2.53a43.75,43.75 0 0 1 2.67,3.75c3.06,3.9 8.55,4.67 13.44,5.55s10.42,2.82 12,7.52c1.07,3.12 0,6.5 -0.58,9.74a2.94,2.94 0 0 0 0.13,2c0.77,1.26 2.68,0.73 4.12,1c2.77,0.59 3.48,4.16 3.59,7q0.17,4.86 0.26,9.73a12.39,12.39 0 0 1 -0.29,3.6a12.71,12.71 0 0 1 -2.79,4.53l-10.86,13.05c-4.82,5.78 -9.93,12.52 -9,20c-2.28,1 -5,-0.95 -5.74,-3.34s-0.15,-5 0.36,-7.41a90.85,90.85 0 0 0 1.74,-12.85a13.18,13.18 0 0 0 -0.75,-6.4c-0.93,-2 -3.1,-3.51 -5.22,-3c-2.82,0.66 -4,4.32 -6.78,5.2c-2.33,0.74 -4.87,-0.91 -6,-3.08s-1.14,-4.71 -1.14,-7.15l0,-8.25c0,-3 -0.1,-6.22 -1.94,-8.57c-2.29,-2.92 -7.68,-4.2 -11.28,-4.08a9.57,9.57 0 0 0 -6.43,2.59c-1.93,1.65 -4.16,2.86 -6.78,2.43z" fill="#7c5c5c" id="svg_141"/>
  <path transform="translate(-65, -5)" d="m854.14,361.78l10.3,42.31s8.12,-0.05 -10.3,-42.31z" opacity="0.1" id="svg_142"/>
  <path transform="translate(-65, -5)" d="m889.33,354.71s-13.48,22.08 -8.22,44.92l2.51,0.18s-4.48,-10.57 5.71,-45.1z" opacity="0.1" id="svg_143"/>
  <path transform="translate(-65, -5)" d="m897.84,479.68s16.56,-5.48 17.76,7.23c0.04,0 -3.08,-8.71 -17.76,-7.23z" opacity="0.1" id="svg_144"/>
  <path transform="translate(-65, -5)" d="m850.03,406.67s-3.29,23 2.63,32.23c0,0 -12,4.93 -28.94,3.95l-2,-36.18l28.31,0z" opacity="0.1" id="svg_145"/>
  <path transform="translate(-65, -5)" d="m852.28,436.31l-1.59,0.89l-10.2,-23l9.54,-8.55l0.49,0l0,0c-0.15,1.14 -2.81,20.91 1.76,30.66z" opacity="0.1" id="svg_146"/>
  <path transform="translate(-65, -5)" d="m850.03,405.69s-3.29,23 2.63,32.22c0,0 -12,4.94 -28.94,3.95l-11.51,-36.17l37.82,0z" fill="#7d1c5d" id="svg_147"/>
  <path transform="translate(-65, -5)" d="m821.59,789.77a7.45,7.45 0 0 1 -6.39,6.52c-8.93,1.33 -30.44,4.73 -35.87,7.32c-6.91,3.29 -34.2,1 -35.52,-2.3a5.22,5.22 0 0 1 0.47,-4a10.54,10.54 0 0 1 4.41,-4.74a11.7,11.7 0 0 1 2,-0.88c5.14,-1.71 14.85,-5.35 17.47,-9.17c0,0 12.11,-10.59 15.56,-16.31a7.9,7.9 0 0 1 6.32,-3.94c2.88,-0.13 6.09,1.32 7.41,7.63c0,0 15.77,9 20,1.11c0,0 0.66,12.12 3.28,15.44l0,0a4.4,4.4 0 0 1 0.86,3.32z" fill="#a27772" id="svg_148"/>
  <path transform="translate(-65, -5)" d="m821.59,789.77a7.45,7.45 0 0 1 -6.39,6.52c-8.93,1.33 -30.44,4.73 -35.87,7.32c-6.91,3.29 -34.2,1 -35.52,-2.3a5.22,5.22 0 0 1 0.47,-4a10.54,10.54 0 0 1 4.41,-4.74c4.45,3 14.33,5.84 36.06,2.45c20.73,-3.24 31,-6.41 36,-8.57l0,0a4.4,4.4 0 0 1 0.84,3.32z" opacity="0.1" id="svg_149"/>
  <g transform="translate(-65, -5)" opacity="0.1" id="svg_150">
   <path d="m911.32,252.01l0,-0.16c0.47,-2.46 1.18,-5 1,-7.47a49.31,49.31 0 0 1 -1,6a3.64,3.64 0 0 0 0,1.63z" id="svg_151"/>
   <path d="m892.13,282.79a9.51,9.51 0 0 1 0.81,3.76a11.34,11.34 0 0 0 -0.81,-5.24c-0.92,-2 -3.09,-3.51 -5.21,-3c-2.82,0.66 -4,4.32 -6.79,5.2c-2.32,0.74 -4.86,-0.91 -6,-3.08s-1.14,-4.72 -1.14,-7.16c0,-2.75 0,-5.49 0,-8.24c0,-3 -0.1,-6.22 -1.94,-8.57c-2.3,-2.93 -7.68,-4.2 -11.28,-4.09a9.58,9.58 0 0 0 -6.44,2.6c-1.93,1.64 -4.15,2.84 -6.78,2.41a5.86,5.86 0 0 1 -4.72,-4.08c-0.27,-1.06 -0.2,-2.2 -0.51,-3.25c-0.77,-2.58 -3.53,-3.93 -5.38,-5.89a10.77,10.77 0 0 1 -2.77,-7a11.21,11.21 0 0 0 2.77,8.43c1.85,2 4.61,3.31 5.38,5.89c0.31,1 0.24,2.19 0.51,3.25a5.86,5.86 0 0 0 4.72,4.08c2.63,0.43 4.85,-0.77 6.78,-2.41a9.58,9.58 0 0 1 6.44,-2.6c3.6,-0.11 9,1.16 11.28,4.09c1.84,2.35 1.93,5.58 1.94,8.57c0,2.75 0,5.49 0,8.24c0,2.44 0,5 1.14,7.15s3.65,3.83 6,3.09c2.76,-0.88 4,-4.54 6.79,-5.2c2.12,-0.46 4.29,1.12 5.21,3.05z" id="svg_152"/>
   <path d="m919.16,273.74a12.64,12.64 0 0 1 -2.8,4.52l-10.86,13.05c-4.57,5.49 -9.4,11.85 -9,18.86c0.33,-6.43 4.81,-12.28 9,-17.38l10.86,-13.05a12.64,12.64 0 0 0 2.8,-4.52a12.48,12.48 0 0 0 0.29,-3.61a9.5,9.5 0 0 1 -0.29,2.13z" id="svg_153"/>
   <path d="m890.84,307.97a7.69,7.69 0 0 1 -0.33,-1.76a8.87,8.87 0 0 0 0.33,3.24c0.74,2.38 3.45,4.35 5.74,3.33a14,14 0 0 1 -0.12,-1.44c-2.28,0.91 -4.92,-1.03 -5.62,-3.37z" id="svg_154"/>
  </g>
  <path transform="translate(-65, -5)" d="m781.53,769.22s3.44,6 15.9,0.72" opacity="0.1" id="svg_155"/>
  <path transform="translate(-65, -5)" d="m886.84,770.68s10.74,12.65 24.28,4.15" opacity="0.1" id="svg_156"/>
  <path transform="translate(-65, -5)" d="m918.1,621.09s-7.59,4.74 -7.83,7.45s3.92,-2 3.92,-2l3.91,-5.45z" opacity="0.1" id="svg_157"/>
  <path transform="translate(-65, -5)" d="m921.1,657.45a15.87,15.87 0 0 1 -9.35,3.65c-5.68,0.25 -5.2,7.65 -1.49,5.43s10.84,-9.08 10.84,-9.08z" opacity="0.1" id="svg_158"/>
  <path transform="translate(-65, -5)" d="m922.54,662.2s-3.64,17.89 -6.6,14.44" opacity="0.1" id="svg_159"/>
  <path transform="translate(-65, -5)" d="m395.84,536.86s-7.7,18.73 -9.66,36.7c-0.71,6.48 -1.63,12.34 -2.53,17.2a157.18,157.18 0 0 0 -2.46,33.27l0.15,4.67l2.5,12.37s6,39.73 -10.57,69c0,0 -9.82,17.53 -10.12,25.83l-6.65,2.57l-13.44,-3.77s6.49,-23.27 4.38,-39.58l1.21,-53s-8.73,-13.26 -9.03,-37.26l-5.13,-65.86l61.35,-2.14z" fill="#fdc2cc" id="svg_161"/>
  <path transform="translate(-65, -5)" d="m334.49,527.48s-1.65,25.68 -14.35,43.38s-15.4,25.38 -15.4,25.38l-15.64,31.62a18.11,18.11 0 0 0 -1.47,11.83l1.54,7.12s8.46,28.7 -0.15,50.91l-4.08,42.9l-23.86,0s-2,-35.65 -2.87,-38.67s-5.74,-61.48 -5.74,-61.48s-10,-13.6 -0.76,-34.59c0,0 20.85,-78.55 26.43,-77.19s56.35,-1.21 56.35,-1.21z" fill="#fdc2cc" id="svg_162"/>
  <g transform="translate(-65, -5)" opacity="0.1" id="svg_163">
   <path d="m286.75,646.86l-1.53,-7.12a18,18 0 0 1 1.46,-11.88l15.64,-31.65s2.71,-7.7 15.4,-25.38c12.19,-17 14.2,-41.36 14.34,-43.23l2.43,-0.12s-1.65,25.68 -14.35,43.38s-15.4,25.38 -15.4,25.38l-15.64,31.62a18.11,18.11 0 0 0 -1.47,11.83l1.54,7.12s8.46,28.7 -0.15,50.91l-4.08,42.9l-2.42,0l4.08,-42.9c8.61,-22.21 0.15,-50.86 0.15,-50.86z" id="svg_164"/>
  </g>
  <path transform="translate(-65, -5)" d="m360.77,735.93c0.3,-8.3 10.12,-25.83 10.12,-25.83c16.62,-29.3 10.57,-69 10.57,-69l-2.56,-12.38l-0.15,-4.67a157.18,157.18 0 0 1 2.46,-33.27c0.89,-4.86 1.81,-10.72 2.52,-17.2c1.89,-17.3 9.1,-35.3 9.63,-36.62l2.48,-0.1s-7.7,18.73 -9.66,36.7c-0.71,6.48 -1.63,12.34 -2.53,17.2a157.18,157.18 0 0 0 -2.46,33.27l0.15,4.67l2.5,12.37s6,39.73 -10.57,69c0,0 -9.82,17.53 -10.12,25.83l-6.65,2.57l-1.4,-0.39l5.67,-2.15z" opacity="0.1" id="svg_165"/>
  <path transform="translate(-65, -5)" d="m353.07,735.63a11.56,11.56 0 0 0 11,-1.36a35.5,35.5 0 0 0 -0.9,19.94c2.72,10.88 -25.38,-8.76 -25.38,-8.76l6,-13.71s2.33,4.34 9.28,3.89z" fill="#d39999" id="svg_166"/>
  <path transform="translate(-65, -5)" d="m355.16,736.24a11.23,11.23 0 0 0 8.93,-2a35.5,35.5 0 0 0 -0.9,19.94c2.72,10.88 -25.38,-8.76 -25.38,-8.76l6,-13.71s1.74,3.34 6.85,3.86c1.55,0.18 3.03,0.39 4.5,0.67z" opacity="0.1" id="svg_167"/>
  <polygon transform="translate(-65, -5)" points="289.32 481.5 301.06 481.5 301.06 414.89 292.25 413.31 289.32 481.5" fill="#fdc2cc" id="svg_168"/>
  <polygon transform="translate(-65, -5)" points="289.32 481.5 301.06 481.5 301.06 414.89 292.25 413.31 289.32 481.5" opacity="0.05" id="svg_169"/>
  <path transform="translate(-65, -5)" d="m346.42,740.77s7.4,-0.46 10.72,6.19l4.08,3.17l2,-4.68a39,39 0 0 1 4.62,25.23s0.6,4.22 -5.59,6.19c0,0 -3.17,1.51 -2.42,7.25s-11.17,14.2 -26.73,10.72c0,0 -13.6,0.31 -15.26,-2.87s1.06,-11.63 1.06,-11.63s5.59,-8.86 8.15,-12.13c0,0 6.65,-13.7 7.41,-20s8.03,-10.92 11.96,-7.44z" fill="#7e5659" id="svg_170"/>
  <path transform="translate(-65, -5)" d="m285.17,746.36l0.12,-9.39s-13.51,3.89 -24.45,-0.51c0,0 0.92,9.44 -0.6,10.73s5.06,13.44 5.06,13.44l7.35,7.7l12.64,-4.6l3.43,-10.8s-2.65,-6.57 -3.55,-6.57z" fill="#d39999" id="svg_171"/>
  <path transform="translate(-65, -5)" d="m285.17,746.36l0.12,-9.39s-13.51,3.89 -24.45,-0.51c0,0 0.92,9.44 -0.6,10.73s5.06,13.44 5.06,13.44l7.35,7.7l12.64,-4.6l3.43,-10.8s-2.65,-6.57 -3.55,-6.57z" opacity="0.1" id="svg_172"/>
  <path transform="translate(-65, -5)" d="m259.41,742.96s7.18,0.83 6.27,10s0.38,0 0.38,0s7.63,3.09 10.35,7.4s7.63,-3.85 8,-6.19s3.43,-3.31 3.43,-3.31s12,22.25 9.88,28.37s-27.88,7.53 -27.88,7.53s-4.69,-2.64 -15.49,5.59s-33.23,2 -33.23,2s-18.28,-7.63 -7.17,-16s18.65,-7.1 18.65,-7.1l16.54,-15.94s2.19,-12.81 10.27,-12.35z" fill="#7e5659" id="svg_173"/>
  <path transform="translate(-65, -5)" d="m345.16,216.95c4.57,2.77 7.82,7.27 12.15,10.4c6.16,4.45 14.43,6.11 19.17,12.05c4,5.06 4.52,12.13 3.44,18.51s-3.5,12.47 -4.67,18.83s-0.93,13.41 2.85,18.65a4.23,4.23 0 0 0 1.83,1.61a6,6 0 0 0 2.79,0c6.46,-0.78 12.66,3.84 15.56,9.67s3.13,12.61 2.83,19.11c-0.25,5.33 -0.85,10.77 -3.19,15.57c-4,8.16 -12.32,13.2 -20.53,17.06a159,159 0 0 1 -16.39,6.62c-3.84,1.3 -7.89,2.47 -11.88,1.79c-6.83,-1.18 -11.67,-7.39 -18.15,-9.82c-5.31,-2 -11.2,-1.28 -16.85,-0.78c-4.82,0.42 -10.33,0.41 -13.65,-3.11c-4.26,-4.52 -2.34,-11.81 -0.16,-17.63a12.55,12.55 0 0 1 -8.88,-20.52c2.06,-2.51 5.35,-5.44 3.74,-8.27a5.48,5.48 0 0 0 -2.16,-1.88c-6.51,-3.72 -15.48,-5.21 -18.22,-12.19c-1.76,-4.49 -0.06,-9.57 2.17,-13.84s5,-8.45 5.61,-13.23c0.8,-6.76 -3,-13.71 -1.07,-20.23a20.28,20.28 0 0 1 4.69,-7.46a64.36,64.36 0 0 1 21,-15.39c7.89,-3.61 15.8,-4.42 24.14,-6.18c5,-1.06 9.14,-2.18 13.83,0.66z" fill="#865a61" id="svg_174"/>
  <path transform="translate(-65, -5)" d="m301.05,317.62s-19.13,-1 -22.75,15.31s7.85,39.67 7.85,39.67l14.9,-54.98z" fill="#fdc2cc" id="svg_175"/>
  <path transform="translate(-65, -5)" d="m301.05,317.62s-19.13,-1 -22.75,15.31s7.85,39.67 7.85,39.67l14.9,-54.98z" opacity="0.05" id="svg_176"/>
  <path transform="translate(-65, -5)" d="m288.84,366.16l7.25,5.74l33.83,1.51l21.12,-14.5l21.48,-36.86c-13.13,-3.35 -18.44,-12.42 -20.42,-20.9a45.76,45.76 0 0 1 -0.42,-17.46s-34.44,-17.83 -30.21,10a37.8,37.8 0 0 1 0.32,10.34c-2,16.3 -17.82,13.23 -17.82,13.23l-6.07,9.36l-6.95,23l-2.11,16.54z" fill="#fdc2cc" id="svg_177"/>
  <path transform="translate(-65, -5)" d="m321.5,293.65a37.8,37.8 0 0 1 0.32,10.34a30.53,30.53 0 0 0 30.31,-2.84a45.76,45.76 0 0 1 -0.42,-17.46s-34.44,-17.83 -30.21,9.96z" opacity="0.1" id="svg_178"/>
  <circle transform="translate(-65, -5)" cx="334.51" cy="275.03" r="30.51" fill="#fdc2cc" id="svg_179"/>
  <path transform="translate(-65, -5)" d="m312.93,360.34c0.74,0 1.47,0.11 2.2,0.18c4,0.4 20.71,1.3 30.23,-10.07c10.65,-12.72 24.83,-28.43 25.41,-29.07a0,0 0 0 1 0,0l14.43,4.36s-11.42,-4.06 -19,17.18a22,22 0 0 0 7.43,25.31a22.86,22.86 0 0 0 9.44,4a0.05,0.05 0 0 1 0,0.05l0,9.32l0,0l-5.9,26a45.07,45.07 0 0 0 0.56,22.25l9,31.81a0,0 0 0 1 0,0c-1.36,0.94 -57.2,38.92 -94.5,12.69c0,0 0,0 0,0c0.14,-1.14 4.75,-38.47 1.55,-56.74a126.16,126.16 0 0 1 -1.67,-14.12c0,-0.12 0,-0.23 0,-0.35a15.92,15.92 0 0 0 -5.47,-10.8c-3.36,-3 -7.91,-11 -3.41,-32.14a77.66,77.66 0 0 1 5,-15.23l12.51,-28.27s0,0 0,0l11.53,0.23a0,0 0 0 1 0,0.08c-1,1.24 -14.37,17.94 -15.82,28.7c-1.42,10.23 -3.17,13.37 16.48,14.63z" fill="#7d1c5d" id="svg_180"/>
  <path transform="translate(-65, -5)" d="m394.91,330.71s11.28,9.67 15.71,31.62s14.3,58.41 14.3,58.41s4,15.91 -9.67,31.62s-22.76,28 -22.76,28l-9,13.26a11.29,11.29 0 0 1 -6.48,4.58c-4.1,1.08 -10.4,1.86 -15.86,-1.13a9.24,9.24 0 0 1 -4,-11.67l2,-4.63s-18.53,11.68 -20.14,5.23s21.55,-12.89 21.55,-12.89s19.13,-3.22 23,-12.28c0,0 20.54,-26.39 18.93,-35.45l-19.84,-53.17s-24.81,-3.28 -16.35,-31.15s28.61,-10.35 28.61,-10.35z" fill="#fdc2cc" id="svg_181"/>
  <path transform="translate(-65, -5)" d="m276.28,531.31s45.32,9.06 56,7.85l1.15,3.83s17.2,3.85 56.09,-2.32q3.81,-0.6 7.91,-1.35l0.91,-0.16s0.53,-2.88 0.95,-7.79c0.93,-11.15 1.26,-32.74 -6.59,-54.84l-6.54,-20.14s-40.42,24.23 -67.18,22c-2.39,-0.2 -4.76,-0.39 -7.15,-0.47c-5.49,-0.21 -14,0 -19.53,-4.43l-11.6,2l0,33a39.54,39.54 0 0 1 -2.62,14.12c-0.25,0.66 -0.51,1.31 -0.8,2a10.5,10.5 0 0 0 -1,6.7z" fill="#65617d" id="svg_182"/>
  <path transform="translate(-65, -5)" d="m333.42,532.72l0,10.27s19.8,4.43 64.91,-3.83c0,0 0.53,-2.88 0.95,-7.79c-13.84,2.22 -52.01,7.56 -65.86,1.35z" opacity="0.1" id="svg_183"/>
  <path transform="translate(-65, -5)" d="m276.28,531.31s45.32,9.06 56,7.85l1.15,3.83l0,-10.27c-5.16,2.14 -42,-6.74 -55.35,-10.07c-0.25,0.66 -0.51,1.31 -0.8,2a10.5,10.5 0 0 0 -1,6.66z" opacity="0.1" id="svg_184"/>
  <path transform="translate(-65, -5)" d="m386.15,519.86l3.36,20.84q3.81,-0.6 7.91,-1.35c-1.05,-6.09 -3.34,-20 -2.71,-22.31l-4.23,-3.62l-4.33,6.44z" fill="#65617d" id="svg_185"/>
  <path transform="translate(-65, -5)" d="m386.62,519.41l3.36,20.85q3.81,-0.61 7.91,-1.35c-1.05,-6.09 -3.34,-20 -2.71,-22.31l-4.23,-3.63l-4.33,6.44z" opacity="0.1" id="svg_186"/>
  <g transform="translate(-65, -5)" opacity="0.05" id="svg_187">
   <path d="m316.55,478.38c-2.38,-0.2 -4.76,-0.39 -7.15,-0.47c-5.34,-0.2 -13.49,0 -19.05,-4.09l1.94,-0.34c5.56,4.41 14,4.22 19.53,4.43c2.39,0.08 4.76,0.27 7.15,0.47c0.78,0.07 1.58,0.11 2.39,0.13a44.87,44.87 0 0 1 -4.81,-0.13z" id="svg_188"/>
   <path d="m387.09,540.67q3.81,-0.6 7.91,-1.34l0.92,-0.17s0.53,-2.88 0.94,-7.79c0.94,-11.15 1.27,-32.74 -6.59,-54.84l-6.16,-19c1.31,-0.74 2,-1.17 2,-1.17l6.54,20.14c7.85,22.1 7.52,43.69 6.59,54.84c-0.42,4.91 -0.95,7.79 -0.95,7.79l-0.91,0.17q-4.09,0.74 -7.91,1.34c-18.17,2.88 -31.59,3.58 -40.75,3.5a257,257 0 0 0 38.37,-3.47z" id="svg_189"/>
   <path d="m329.84,539.16l0,0.11l-1.3,0q0.74,-0.05 1.3,-0.11z" id="svg_190"/>
  </g>
  <ellipse transform="translate(-65, -5)" cx="391.78" cy="520.23" rx="1.71" ry="3.52" fill="#d39999" id="svg_191"/>
  <path transform="translate(-65, -5)" d="m282.64,448.95c2.76,-20.5 7.63,-32.68 10.2,-37.45c0.1,0.65 0.36,2.76 0.48,3.41c0.52,3 0.06,6.78 0.22,10.59l-2.56,46.36l3.43,14.5c3.22,11.48 -8.71,2.41 -8.71,2.41c-2.47,5.44 -7,4.84 -7,4.84l-0.62,-8.32a71.86,71.86 0 0 1 2.08,-23.33a111.18,111.18 0 0 0 2.48,-13.01z" fill="#fdc2cc" id="svg_192"/>
  <path transform="translate(-65, -5)" d="m282.64,448.95c2.76,-20.5 7.63,-32.68 10.2,-37.45c0.1,0.65 0.36,2.76 0.48,3.41c0.52,3 0.06,6.78 0.22,10.59l-2.56,46.36l3.43,14.5c3.22,11.48 -8.71,2.41 -8.71,2.41c-2.47,5.44 -7,4.84 -7,4.84l-0.62,-8.32a71.86,71.86 0 0 1 2.08,-23.33a111.18,111.18 0 0 0 2.48,-13.01z" opacity="0.05" id="svg_193"/>
  <path transform="translate(-65, -5)" d="m397.42,473.96c-2.17,2.81 -3.36,4.42 -3.36,4.42l-9,13.25a11.24,11.24 0 0 1 -6.48,4.58c-4.1,1.08 -10.4,1.87 -15.86,-1.13a9.22,9.22 0 0 1 -4,-11.66l2,-4.64s-18.53,11.68 -20.14,5.24s21.55,-12.89 21.55,-12.89s19.13,-3.22 23,-12.29c0,0 1.67,-2.14 4,-5.42" fill="#fdc2cc" id="svg_194"/>
  <path transform="translate(-65, -5)" d="m386.15,496.17s-21.91,-2.13 -28.85,-14.66l-3.18,10.35s23,15.88 28.25,13.82l3.78,-9.51z" fill="#65617d" id="svg_195"/>
  <path transform="translate(-65, -5)" d="m385.37,496.07s-21.9,-2.13 -28.85,-14.67l-3.17,10.32s23,15.88 28.24,13.82l3.78,-9.47z" opacity="0.1" id="svg_196"/>
  <path transform="translate(-65, -5)" d="m286.42,490.32s-7.67,2.72 -9.18,1.21l3.45,6.35l6.52,-5l-0.79,-2.56z" fill="#65617d" id="svg_197"/>
  <path transform="translate(-65, -5)" d="m286.42,490.32s-7.67,2.72 -9.18,1.21l3.45,6.35l6.52,-5l-0.79,-2.56z" opacity="0.1" id="svg_198"/>
  <polygon transform="translate(-65, -5)" points="333.42 532.72 333.42 519.47 330.27 533.04 333.42 532.72" opacity="0.1" id="svg_199"/>
  <path transform="translate(-65, -5)" d="m364.49,258.92c-1.85,2.6 -5.06,3.92 -8.22,4.33s-6.36,0.06 -9.55,0c-5,-0.08 -10.32,0.69 -14.41,3.63c-2.61,1.87 -4.57,4.5 -6.61,7c-6.18,7.55 -14.76,14.62 -24.5,13.83a6.35,6.35 0 0 1 -4.55,-1.92a7.3,7.3 0 0 1 -1.16,-4.14a94.64,94.64 0 0 1 0.59,-18.66a39.34,39.34 0 0 1 2.82,-11.13a38,38 0 0 1 6.78,-9.68a41.47,41.47 0 0 1 11.83,-9.48a21.22,21.22 0 0 1 14.8,-1.91c5.83,1.59 10.37,6.15 15.93,8.5c6.35,2.67 23.21,9.8 16.25,19.63z" opacity="0.1" id="svg_200"/>
  <path transform="translate(-65, -5)" d="m364.49,257.71c-1.85,2.6 -5.06,3.92 -8.22,4.33s-6.36,0.06 -9.55,0c-5,-0.09 -10.32,0.68 -14.41,3.62c-2.61,1.87 -4.57,4.5 -6.61,7c-6.18,7.55 -14.76,14.62 -24.5,13.83a6.31,6.31 0 0 1 -4.55,-1.92a7.27,7.27 0 0 1 -1.16,-4.14a94.64,94.64 0 0 1 0.59,-18.66a39.34,39.34 0 0 1 2.82,-11.13a37.74,37.74 0 0 1 6.78,-9.67a41.33,41.33 0 0 1 11.83,-9.49a21.22,21.22 0 0 1 14.8,-1.91c5.83,1.59 10.37,6.15 15.93,8.5c6.35,2.68 23.21,9.79 16.25,19.64z" fill="#865a61" id="svg_201"/>
  <polygon transform="translate(-65, -5)" points="292.3 473.47 292.22 477.12 291.4 473.63 292.3 473.47" fill="#fdc2cc" id="svg_202"/>
  <polygon transform="translate(-65, -5)" points="292.3 473.47 292.22 477.12 291.4 473.63 292.3 473.47" opacity="0.05" id="svg_203"/>
  <g transform="translate(-65, -5)" opacity="0.05" id="svg_204">
   <path d="m369.42,339.15c-8.47,27.87 16.22,31.14 16.22,31.14l19.84,53.17c1.61,9.06 -18.94,35.45 -18.94,35.45c-1.43,3.38 -5,5.95 -8.9,7.85a13.94,13.94 0 0 0 5.28,-5.8s20.54,-26.38 18.93,-35.44l-19.84,-53.18s-24.68,-3.27 -16.22,-31.14c2.83,-9.31 7,-13.55 11.22,-15.07c-2.91,2.34 -5.58,6.39 -7.59,13.02z" id="svg_205"/>
  </g>
  <g transform="translate(-65, -5)" opacity="0.1" id="svg_206">
   <path d="m369.84,364.47a20.84,20.84 0 0 0 4,3.79a22.73,22.73 0 0 0 9.44,4s0,0 0,0.05l0,1a22.66,22.66 0 0 1 -8.56,-3.79a20.75,20.75 0 0 1 -4.88,-5.05z" id="svg_207"/>
   <path d="m293.12,404.34c0,0.11 0,0.23 0,0.35a129.15,129.15 0 0 0 1.72,14.17c3,17.24 -0.93,51.47 -1.49,56.2c-0.32,-0.21 -0.64,-0.41 -1,-0.64a0.05,0.05 0 0 1 0,0c0.15,-1.14 4.76,-38.47 1.56,-56.73a126.72,126.72 0 0 1 -1.67,-14.12c0,-0.12 0,-0.24 0,-0.35a15.43,15.43 0 0 0 -2.69,-7.65a15.55,15.55 0 0 1 3.57,8.77z" id="svg_208"/>
   <path d="m311.53,318.06l-9.78,-0.19a0.05,0.05 0 0 0 -0.05,0l-12.5,28.26a77.91,77.91 0 0 0 -5,15.23c-3.64,17.1 -1.35,25.62 1.43,29.83c-3.13,-3.69 -6.36,-12.1 -2.33,-31a77.09,77.09 0 0 1 4.95,-15.24l12.59,-28.26s0,0 0,0l11.53,0.23a0,0 0 0 1 0,0.07c-0.09,0.12 -0.4,0.5 -0.84,1.07z" id="svg_209"/>
   <path d="m385.23,325.73l0.17,0.05l-0.17,-0.05z" id="svg_210"/>
   <path d="m381.64,325.57l-9.8,-2.95a0,0 0 0 0 -0.05,0c-0.58,0.64 -14.75,16.35 -25.4,29.07c-9.52,11.37 -26.21,10.48 -30.23,10.08c-0.73,-0.08 -1.47,-0.14 -2.2,-0.19c-10.93,-0.7 -15.23,-2 -16.67,-4.76c2.05,2 6.56,3 15.76,3.56c0.74,0 1.47,0.11 2.2,0.18c4,0.4 20.71,1.29 30.23,-10.07c10.65,-12.73 24.83,-28.44 25.41,-29.08l0,0l14.26,4.32a8.91,8.91 0 0 0 -3.51,-0.16z" id="svg_211"/>
  </g>
  <path transform="translate(-65, -5)" d="m265.61,757.49s-13.8,3.77 -16.47,-2.15" opacity="0.1" id="svg_212"/>
  <path transform="translate(-65, -5)" d="m353.22,754.66s-16,4.13 -19.7,-2.26" opacity="0.1" id="svg_213"/>
  <g id="svg_276">
   <g transform="matrix(0.668101, 0, 0, 0.662971, -1266.53, -899.647)" id="svg_274">
    <title>background</title>
    <rect fill="none" id="svg_272" height="770" width="1026" y="1980.11472" x="2558.18645"/>
   </g>
   <g transform="matrix(0.668101, 0, 0, 0.662971, -1266.53, -899.647)" id="svg_275">
    <title>Layer 1</title>
    <rect id="svg_271" opacity="0.2" fill="#7d1c5d" height="25.51" width="25.51" y="2288.02472" x="3329.19645"/>
    <rect id="svg_270" opacity="0.2" fill="#7d1c5d" height="25.51" width="25.51" y="2288.02472" x="3364.05645"/>
    <circle id="svg_269" fill="#767d9f" r="34.86987" cy="2347.00472" cx="3295.70645"/>
    <path id="svg_268" fill="#ae6e79" d="m3293.89645,2302.64472q5.22,22.78 8.86,45.9c0.73,4.58 1.38,9.41 -0.28,13.74c-1.39,3.61 -4.22,6.43 -6.44,9.59s-3.9,7.21 -2.55,10.83s5.29,5.6 9.05,6.62c10.76,2.9 22.23,0.79 32.94,-2.35a53.29,53.29 0 0 0 13.81,-5.72c4.54,-2.88 8.26,-6.88 11.68,-11c15.61,-18.93 25.83,-41.65 35.45,-64.23a39.12,39.12 0 0 1 -33.11,-13.34c-3.94,-4.63 -6.83,-11.08 -4.61,-16.74c-6.51,3.57 -14.24,3.81 -21.25,6.25a75.49,75.49 0 0 0 -12.5,6.15q-7.18,4.15 -14.28,8.46c-5.41,3.26 -10.48,6.16 -16.77,5.84z"/>
    <path id="svg_267" fill="#767d9f" d="m3366.82645,2328.82472c-6.11,11.89 -14.06,23.32 -25.41,30.4s-26.63,9 -38,2c-5.6,-3.42 -9.84,-8.62 -14.73,-13s-11,-8.13 -17.57,-7.56c-7.24,0.63 -12.91,6.28 -17.76,11.69c-7.36,8.22 -14.47,16.79 -19.68,26.52c-10,18.7 -12.37,40.56 -11.93,61.76s3.51,42.29 3.58,63.49c0.1,26.08 -4.32,51.95 -8.79,77.64c41.1,-5.06 82.25,6 123.44,10.19c26.36,2.71 52.92,2.65 79.42,2.58c4.66,0 9.62,-0.12 13.5,-2.7a18.2,18.2 0 0 0 5.59,-6.64c3.66,-6.75 5.13,-14.45 6.15,-22.06c2.59,-19.22 2.67,-38.68 2.74,-58.08c0.18,-47 0.35,-94.17 -5.62,-140.8c-1.47,-11.47 -3.35,-23 -7.75,-33.73s-11.58,-20.6 -21.62,-26.35c-6.45,-3.7 -21.4,-10.14 -29,-6.41c-8.53,4.16 -12.47,23.1 -16.56,31.06z"/>
    <path id="svg_266" fill="#4c4981" d="m3369.86645,2461.54472c-1.55,-29 -7.86,-59.95 5.57,-85.69c3.3,-6.32 -8.54,-14.21 -4.88,-20.33a92.08,92.08 0 0 0 10.06,-23.93c0.76,-2.89 1.37,-5.95 0.65,-8.85c-1.33,-5.29 -6.56,-8.44 -11,-11.66c-4.9,-3.56 -7.42,-14.41 -9,-20.28s12.57,1.2 18.26,-0.89c7.9,-2.89 17.94,-1.07 25.82,1.86c4.4,1.62 9.18,1.76 13.87,1.88c9.11,0.24 18.25,0.47 27.29,-0.65c4.06,-0.51 8.13,-1.28 12.21,-1.05c10.41,0.59 19.46,7.71 25.62,16.13s10.08,18.23 15.13,27.35c4.21,7.6 9.23,14.78 12.82,22.69c3.18,7 5.19,14.52 7.18,22l5.13,19.19a25.58,25.58 0 0 1 1.26,8.51c-0.26,3.07 -1.62,5.93 -3,8.66a164.12,164.12 0 0 1 -18.67,28.49c-10.79,13.23 -23.89,25.16 -30.3,41c-2.5,6.17 -3.89,12.73 -5.16,19.27a707.94,707.94 0 0 0 -10.9,79.15a174.2,174.2 0 0 0 -36.52,-12.21a177.61,177.61 0 0 0 -19,-3c-5.59,-0.58 -12.8,0.52 -18.12,-1c-8.9,-2.53 -9.88,-17.58 -11.23,-25.46c-2.16,-12.55 -2.59,-25.32 -2.67,-38c-0.1,-14.42 0.35,-28.81 -0.42,-43.18z"/>
    <path id="svg_265" fill="#4c4981" d="m3174.41645,2407.31472c4.21,24 8.85,48.07 18,70.62c-0.23,0.22 -0.46,0.42 -0.69,0.62c-0.81,0.69 -1.65,1.34 -2.53,2c-2.05,1.44 -4.3,2.66 -6,4.54a8,8 0 0 0 -1.5,2.45a5.48,5.48 0 0 0 0,4.47c-4.77,2.11 -10.31,1.46 -15.66,1.26c-4.61,-0.17 -9.08,0 -12.78,2.53c-5.14,3.54 -6.69,10.34 -7.52,16.52q-0.46,3.38 -0.79,6.77q-0.32,3.15 -0.52,6.32a188.61,188.61 0 0 0 -0.19,21q0.08,1.92 0.21,3.84c-16.34,-0.39 -31.23,-8.91 -45.32,-17.19c-3.22,-1.89 -6.54,-3.88 -8.63,-7a15.8,15.8 0 0 1 -2.31,-10.29c0,-0.51 0.09,-1 0.16,-1.52a41.58,41.58 0 0 1 2.29,-8.68a107.2,107.2 0 0 1 19.19,-32.65c3.58,-4.18 7.61,-8.27 9.28,-13.52c0.73,-2.29 1,-4.72 1.74,-7c3.32,-9.88 15.3,-14.55 19.4,-24.14c1,-2.29 1.46,-4.8 2.7,-7a17.63,17.63 0 0 1 4.25,-4.75c0.73,-0.61 1.49,-1.2 2.24,-1.79q10.54,-8.26 20.31,-17.45q1.82,-1.71 3.6,-3.46a59.48,59.48 0 0 0 1.07,13.5z"/>
    <path id="svg_264" fill="#4c4981" d="m3275.18645,2336.33472c-1.44,1.52 -3,2.95 -4.53,4.37l-0.41,0.37l-1.62,1.5a39,39 0 0 0 -7.55,8.79l-0.17,0.28c-5.1,9.13 -3.21,20.37 -1.79,30.74a261.55,261.55 0 0 1 2.37,39c-0.26,18 -2.38,35.88 -2.42,53.86c0,4.08 0.09,8.15 0.27,12.23c0.29,6.63 0.79,13.25 1.39,19.87c0.65,7.26 1.43,14.51 2.16,21.76c0.58,5.61 1.13,11.21 1.59,16.81c0.23,2.9 0.45,5.79 0.63,8.69c0.21,3.4 0.38,6.81 0.48,10.21l0,0c0.07,2.16 0.11,4.31 0.11,6.47c0,1.23 0,2.45 0,3.67q0,3.51 -0.19,7q-0.2,4.49 -0.61,9c-0.31,3.27 -0.86,6.84 -3.16,9.14c-0.14,0.14 -0.29,0.27 -0.44,0.4l-3.24,-0.4a332.72,332.72 0 0 0 -67.3,-1.2c0.49,-3.38 0.94,-6.75 1.38,-10.14c0.2,-1.6 0.4,-3.21 0.59,-4.82q0.33,-2.76 0.63,-5.52c0.23,-2 0.44,-4 0.64,-6q0.78,-7.73 1.37,-15.47q0.87,-11.29 1.32,-22.62q0.22,-5.41 0.34,-10.83q0.17,-6.72 0.16,-13.45q0,-6.54 -0.11,-13.1c0,-1.44 -0.06,-2.88 -0.18,-4.31a27.35,27.35 0 0 0 -0.53,-3.83a49.87,49.87 0 0 0 -3,-8.48c-0.22,-0.52 -0.43,-1 -0.64,-1.55c-0.12,-0.27 -0.23,-0.55 -0.34,-0.82c5.76,-5.13 9.86,-12 13.8,-18.76c6.39,-10.89 12.93,-22.26 14,-34.84s-5.18,-26.71 -17.2,-30.55c-3.27,-1 -6.73,-1.28 -10.1,-1.87c-3.18,-0.56 -9.81,-1.83 -13.49,-4.11q-3,3.08 -6,6.05a22.15,22.15 0 0 1 2.17,-8.71l1.42,0.07a2.71,2.71 0 0 1 -0.16,-1c0,-1.07 0.74,-2.28 2.32,-3.62c4.71,-4 12.12,-4.89 15.09,-10.3c1.24,-2.25 1.45,-4.93 2.45,-7.29c2.87,-6.73 11.11,-9.21 16.07,-14.59s6.2,-13 10.21,-19a28.62,28.62 0 0 1 12,-10c0.4,-0.19 0.81,-0.38 1.22,-0.55c8.3,-3.55 18.16,-4.36 26.76,-4.34c3.34,0 12,0.1 16.24,1.79a5.32,5.32 0 0 1 1.85,1.13c4.52,4.92 -2.51,15.31 -5.85,18.87z"/>
    <path id="svg_263" fill="#4c4981" d="m3175.90645,2384.46472a60.88,60.88 0 0 1 46.74,4.87c7.2,4 13.66,9.58 17.62,16.78c5.95,10.8 5.69,23.82 5.27,36.15c-0.21,6.17 -0.48,12.56 -3.2,18.1c-3.15,6.41 -9.09,10.81 -15.15,14.41a42.24,42.24 0 0 1 -12.32,5.33c-6.72,1.46 -13.7,0.22 -20.47,-1c-7.36,-1.36 -15.26,-3 -20.37,-8.48c-3,-3.18 -4.64,-7.31 -6.26,-11.35q-3.49,-8.75 -7,-17.48c-4.05,-10.11 -5.42,-18.52 -0.07,-28.37c2.43,-4.49 5.4,-8.69 7.8,-13.21c1.2,-2.3 5.5,-15.16 7.41,-15.75z"/>
    <path id="svg_262" fill="#504f60" d="m3596.18645,2557.33472l0,29.9a167.3,167.3 0 0 1 -64.73,12.8l-269.69,0c-0.14,0.14 -0.29,0.27 -0.44,0.4l-3.24,-0.4l-479.73,0c-40.25,0 -77.55,-10.86 -108.14,-29.36l0,-45.65l230.72,-26.63l0.18,0l134.36,11.38l34.77,3l18.06,1.53l37.38,3.17l19.23,1.63l28,2.38l3.94,0.33l20.18,1.71l27.38,2.25l38.5,3.26l64.18,5.45l45.15,3.83l74.14,6.29l14.1,1.19l1.52,0.13l1.32,0.11l18.62,1.58l20.44,1.74l2.37,0.2l91.43,7.78z"/>
    <polygon id="svg_261" fill="#9c9ca1" points="3325.1865234375,2556.234743118286 3036.04638671875,2506.884645462036 3024.83642578125,2563.574586868286 3157.37646484375,2579.444704055786 3198.1865234375,2584.554567337036 3310.4462890625,2562.444704055786 3325.1865234375,2556.234743118286 "/>
    <path id="svg_260" fill="#9c9ca1" d="m3175.51645,2581.71472l144.86,-27.23a5,5 0 0 1 5.94,4.93l0,0a5,5 0 0 1 -4.09,4.93l-141.47,26.49l-5.24,-9.12z"/>
    <path id="svg_259" fill="#ae6e79" d="m3238.35645,2496.08472c4.51,-0.42 9.08,-1.13 13.14,-3.13c5,-2.49 8.89,-6.78 13.52,-9.94c10.18,-7 23.8,-7.94 35.47,-3.92s21.41,12.63 28.23,22.91c4.53,6.85 7.93,15.59 4.73,23.15a30.51,30.51 0 0 1 -4.12,6.44l-8.34,10.9a29,29 0 0 1 -5.66,6.09c-3.12,2.27 -7,3.2 -10.82,3.76c-10.15,1.48 -20.48,0.64 -30.71,1.32c-17.57,1.17 -34.73,6.83 -52.34,6.64c-10.12,-0.11 -20.11,-2.15 -30,-4.19l-43.77,-9c-7.62,-1.56 -16.23,-3.84 -19.82,-10.75c-1.61,-3.11 -1.91,-6.71 -2.1,-10.21c-0.52,-9.64 0,-20.36 6.68,-27.31c6.28,-6.52 16.21,-8.58 23.71,-13.4c9.18,-5.91 12.21,-4 21.89,0.44a120,120 0 0 0 60.31,10.2z"/>
    <path id="svg_258" opacity="0.05" d="m3238.35645,2496.08472c4.51,-0.42 9.08,-1.13 13.14,-3.13c5,-2.49 8.89,-6.78 13.52,-9.94c10.18,-7 23.8,-7.94 35.47,-3.92s21.41,12.63 28.23,22.91c4.53,6.85 7.93,15.59 4.73,23.15a30.51,30.51 0 0 1 -4.12,6.44l-8.34,10.9a29,29 0 0 1 -5.66,6.09c-3.12,2.27 -7,3.2 -10.82,3.76c-10.15,1.48 -20.48,0.64 -30.71,1.32c-17.57,1.17 -34.73,6.83 -52.34,6.64c-10.12,-0.11 -20.11,-2.15 -30,-4.19l-43.77,-9c-7.62,-1.56 -16.23,-3.84 -19.82,-10.75c-1.61,-3.11 -1.91,-6.71 -2.1,-10.21c-0.52,-9.64 0,-20.36 6.68,-27.31c6.28,-6.52 16.21,-8.58 23.71,-13.4c9.18,-5.91 12.21,-4 21.89,0.44a120,120 0 0 0 60.31,10.2z"/>
    <path id="svg_257" fill="#ae6e79" d="m3414.12645,2482.37472c-12.28,4.75 -24.63,9.52 -37.49,12.35c-21.56,4.75 -44.12,4 -65.51,9.43c-11.3,2.88 -22.53,7.52 -34.14,6.58c-5.19,-0.42 -10.2,-2 -15.25,-3.2c-28.37,-7 -60.62,-4.73 -83.66,13.27c-7.88,6.15 -14.33,13.82 -20.18,22a14.7,14.7 0 0 0 5.91,21.88a86.62,86.62 0 0 0 28.38,7.57c13.13,1.16 26.32,-0.7 39.38,-2.56c19.38,-2.75 38.77,-5.51 58.1,-8.6c6.94,-1.11 13.88,-2.26 20.86,-3.14c50.23,-6.35 101.37,1.37 151.73,-3.93c5.09,-0.54 10.27,-1.24 14.9,-3.41c11.72,-5.5 17.52,-20 15.1,-32.74s-11.76,-23.33 -23,-29.83c-9.42,-5.47 -19.58,-7.68 -30.07,-10c-9.74,-2.27 -15.68,0.73 -25.06,4.33z"/>
    <path id="svg_256" opacity="0.1" d="m3521.85645,2406.21472c5.54,7.26 6.72,17 6.12,26.09s-2.76,18.08 -3.08,27.21c-0.44,12.52 2.58,25 2.07,37.48c-0.36,8.73 -2.43,17.29 -4.88,25.67c-2.89,9.89 -7.07,20.52 -16.2,25.27c-12.12,6.31 -37.54,2.76 -50.29,7.7c1.16,-7.23 12.28,-17.7 13.44,-24.93c0.8,-5 1.61,-10.14 0.75,-15.15c-1.1,-6.39 -4.85,-12.06 -9.3,-16.78c-7.08,-7.51 -16.32,-13.16 -26.47,-15s-35,-0.33 -43.12,6.08c-1,-6.62 17.6,-13 24.14,-14.43c3.26,-0.73 7,-0.32 9.61,-2.39c5,-3.92 1.37,-11.73 1.61,-18c0.19,-5 3.11,-9.58 3.7,-14.58c1,-8 -4.22,-16.15 -2.17,-24c0.76,-2.9 2.45,-5.45 3.62,-8.21c3.56,-8.45 2,-18.09 0.1,-27.07c-1.18,-5.64 -2.33,-12 0.81,-16.81c2.91,-4.49 11.17,11.5 16.46,10.76c17.47,-2.45 33.28,-15.4 47.39,-4.8c7.19,5.4 8.13,11 11,18.71c2.79,7.34 10.02,11.1 14.69,17.18z"/>
    <path id="svg_255" fill="#4c4981" d="m3524.85645,2406.21472c5.54,7.26 6.72,17 6.12,26.09s-2.76,18.08 -3.08,27.21c-0.44,12.52 2.58,25 2.07,37.48c-0.36,8.73 -2.43,17.29 -4.88,25.67c-2.89,9.89 -7.07,20.52 -16.2,25.27c-12.12,6.31 -37.54,2.76 -50.29,7.7c1.16,-7.23 12.28,-17.7 13.44,-24.93c0.8,-5 1.61,-10.14 0.75,-15.15c-1.1,-6.39 -4.85,-12.06 -9.3,-16.78c-7.08,-7.51 -16.32,-13.16 -26.47,-15s-35,-0.33 -43.12,6.08c-1,-6.62 17.6,-13 24.14,-14.43c3.26,-0.73 7,-0.32 9.61,-2.39c5,-3.92 1.37,-11.73 1.61,-18c0.19,-5 3.11,-9.58 3.7,-14.58c1,-8 -4.22,-16.15 -2.17,-24c0.76,-2.9 2.45,-5.45 3.62,-8.21c3.56,-8.45 2,-18.09 0.1,-27.07c-1.18,-5.64 -2.33,-12 0.81,-16.81c2.91,-4.49 8.6,-6.19 13.89,-6.94a68.42,68.42 0 0 1 50,12.9c7.19,5.4 8.13,11 11,18.71c2.75,7.34 9.98,11.1 14.65,17.18z"/>
    <path id="svg_254" fill="#9c9ca1" d="m2863.18645,2358.83472l54.37,200.94a12.55,12.55 0 0 0 10.91,9.21l244.72,23.51a12.54,12.54 0 0 0 13.38,-15.48l-59.54,-242.38a12.54,12.54 0 0 0 -13.12,-9.51l-239.59,17.92a12.54,12.54 0 0 0 -11.13,15.79z"/>
    <ellipse id="svg_253" fill="#fff" ry="27.25" rx="26.9" cy="2370.79472" cx="3348.29645"/>
    <path id="svg_252" fill="#fff" d="m3370.38645,2321.08472s5.67,16.86 -11.06,23.95l-2.14,3.74l10.48,10.34s12.92,-23.57 11.52,-31.94c0,0 -2,-8.5 -8.8,-6.09z"/>
    <circle id="svg_251" fill="#7d1c5d" r="25.9397" cy="2372.10472" cx="3351.38645"/>
    <path id="svg_250" fill="#7d1c5d" d="m3379.31645,2331.00472l-4.12,-6.8l-6,-0.85c1.28,-22.39 -4.53,-29.06 -4.53,-29.06l-1.35,-0.13l-5.88,-0.57l-11.06,-11.48l0,-3.26c15.54,1.85 24.13,9.23 28.77,17.88c8.2,15.18 4.17,34.27 4.17,34.27z"/>
    <path id="svg_249" opacity="0.1" stroke-miterlimit="10" stroke="#4c4981" d="m3363.36645,2290.04472l0,4.12l-5.88,-0.57l-11.06,-11.48s17.11,3.83 16.94,7.93z"/>
    <path id="svg_248" opacity="0.1" stroke-miterlimit="10" stroke="#4c4981" d="m3379.31645,2331.00472l-4.12,-6.8l0,-27.43c8.15,15.14 4.12,34.23 4.12,34.23z"/>
    <ellipse id="svg_247" fill="#fff" transform="rotate(-30, 2375.52, 2289.75)" ry="26.32" rx="14.43" cy="2807.95473" cx="3132.62645"/>
    <path id="svg_246" fill="#7d1c5d" d="m3294.18645,2357.77472c7.27,12.59 16.19,21 9.29,25s-27,2 -34.27,-10.6s-0.67,-30 6.23,-34s11.47,6.98 18.75,19.6z"/>
    <path id="svg_245" opacity="0.1" d="m3365.91645,2253.07472c0,40.23 -27.53,79 -67.76,79a72.85,72.85 0 0 1 0,-145.7c40.23,0.04 67.76,26.46 67.76,66.7z"/>
    <circle id="svg_244" fill="#ae6e79" r="72.84998" cy="2253.26472" cx="3295.15645"/>
    <path id="svg_243" fill="#444053" d="m3286.75645,2235.98472c8.67,3.19 13.8,12.15 21.58,17.14c11,7 25.32,5.19 37.88,1.73c7,-1.91 14.32,-4.24 21.21,-2.12a6,6 0 0 0 3.23,0.46c1.5,-0.43 2.24,-2.09 2.73,-3.57c8.52,-25.4 4.69,-54.17 -8.17,-77.67c-3.32,-6.06 -7.3,-11.92 -12.78,-16.13c-4.32,-3.31 -9.4,-5.48 -14.52,-7.33a145,145 0 0 0 -28.88,-7.13a17.94,17.94 0 0 0 -5.27,-0.17c-2.41,0.39 -4.57,1.69 -6.72,2.85a68.78,68.78 0 0 1 -29.86,8.11c-14,0.53 -30,-2.77 -40.79,6.21c-13,10.77 -9.76,31.78 -18.19,46.4c-5.58,9.67 -16.34,16.69 -18.11,27.7a25.57,25.57 0 0 0 0.63,10.07c4.12,16.94 20.52,30.06 38,30.37a14.42,14.42 0 0 0 7.76,-1.59a17.55,17.55 0 0 0 4.09,-3.89c11.45,-13.56 24.55,-39.4 46.18,-31.44z"/>
    <path id="svg_242" opacity="0.1" d="m3371.38645,2245.25472c-0.49,1.48 -1.23,3.14 -2.73,3.57a6,6 0 0 1 -3.23,-0.46c-6.89,-2.12 -14.25,0.21 -21.2,2.12c-12.57,3.46 -26.92,5.31 -37.88,-1.73c-7.79,-5 -12.91,-14 -21.59,-17.14c-21.63,-8 -34.73,17.88 -46.21,31.44a17.55,17.55 0 0 1 -4.09,3.89a14.42,14.42 0 0 1 -7.76,1.59c-17.42,-0.31 -33.83,-13.43 -38,-30.37c-0.23,-1 -0.43,-2 -0.58,-3c0,0.09 0,0.17 -0.05,0.26a25.57,25.57 0 0 0 0.63,10.07c4.12,16.94 20.53,30.06 38,30.37a14.42,14.42 0 0 0 7.76,-1.59a17.55,17.55 0 0 0 4.09,-3.89c11.48,-13.56 24.58,-39.4 46.21,-31.44c8.68,3.19 13.8,12.15 21.59,17.14c11,7 25.31,5.19 37.88,1.73c7,-1.91 14.31,-4.24 21.2,-2.12a6,6 0 0 0 3.23,0.46c1.5,-0.43 2.24,-2.09 2.73,-3.57a90.29,90.29 0 0 0 4.48,-32.26a88.8,88.8 0 0 1 -4.48,24.93z"/>
   </g>
  </g>
 </g>
</svg>